<svg xmlns="http://www.w3.org/2000/svg" width="357" height="35" fill="none"><g fill="#F9F6EA" clip-path="url(#a)"><path d="M29.454 12.138c.107-.178.142-.356.178-.535-.071-.249-.143-.534-.32-.676-.143-.072-.25-.179-.369-.286-.285-.178-.653-.249-.938-.249a.382.382 0 0 0-.214.071c-.143.072-.214.178-.32.25a3.486 3.486 0 0 0-.796.82c-.143.142-.285.213-.404.32-.178.25-.32.392-.44.606-.178.249-.44.427-.724.57-.546.213-1.093.427-1.592.677-.439.142-.938.249-1.377.356-.582.071-1.093.25-1.592.285-.546.036-1.08.25-1.662.32h-.321c-.107-.035-.143-.106-.107-.178.214-.498.546-.926.76-1.496.036-.071.071-.143.143-.178.51-.535.973-1.105 1.306-1.746.51-.713.974-1.496 1.556-2.102.142-.107.214-.285.285-.428.107-.142.214-.356.404-.463l.938-1.033c.356-.428.76-.784 1.164-1.14.107-.107.25-.178.356-.285.796.25 1.592.427 2.352.641h.178l1.734.107c.76-.071 1.449-.107 2.138-.463.285-.107.546-.143.867-.214.106 0 .178 0 .249-.071.25-.178.51-.214.76-.392.25-.143.44-.357.618-.57l.475-.463a.501.501 0 0 0 .25-.214c.035-.25.213-.5.32-.784.035-.071.035-.143 0-.25l-.143-.213a.62.62 0 0 0-.617-.178.476.476 0 0 0-.321.035c-.071 0-.142 0-.214.071-.25.321-.617.642-.867.891-.213.214-.475.392-.76.463-.404.179-.938.321-1.342.464-.404-.072-.689.035-1.01.07-.142.036-.249.072-.403.072-.143-.036-.357-.107-.51-.071-.322 0-.654-.071-.94-.107a19.044 19.044 0 0 1-2.968-.748 1.167 1.167 0 0 0-.44-.178c-.475-.25-1.01-.428-1.556-.606-.866-.32-2.28-.89-2.684-1.105-.178-.07-.356-.178-.581-.213a3.908 3.908 0 0 1-.974-.321c-.404-.143-.796-.25-1.129-.356-.582-.143-1.27-.357-1.888-.428-.475-.142-.974-.178-1.52-.285-.178-.071-.357-.036-.582-.071a1.496 1.496 0 0 0-.582-.107c-.25.035-.51 0-.725 0-.938-.071-1.817.071-2.648.25-.404.07-.76.213-1.27.32a4.368 4.368 0 0 0-1.414.57c-.214.071-.368.107-.475.285-.285.285-.582.392-.903.606a.689.689 0 0 1-.32.178c-.214.107-.404.25-.475.427-.143.214-.321.535-.547.713-.178.143-.25.356-.32.534a8.02 8.02 0 0 0-.321 1.248 1.614 1.614 0 0 0-.107.57c.036.427-.143.712-.036 1.068.072.321.178.642.25 1.034a.671.671 0 0 1 .071.285c.143.463.32.82.618 1.211.07.071.142.143.213.32.179.286.44.535.69.785.249.25.581.498.76.748.035.071.106.071.177.107.321.178.618.392.939.499.142.07.32.142.51.178.214.035.404.035.511.035.214.036.44 0 .653-.035.107-.036.214-.072.357-.072a6.03 6.03 0 0 0 1.377-.356c.143-.071.32-.214.475-.32.404-.285.76-.642 1.01-1.07l.035-.178c0-.142-.07-.285-.07-.427 0-.214-.179-.392-.321-.499-.072 0-.143 0-.25.036-.25.178-.546.356-.724.605l-.321.285c-.51.321-.938.5-1.663.5-.142.035-.902-.072-.974-.143-.867-.25-1.342-.855-1.662-1.39a2.025 2.025 0 0 1-.44-.534 2.992 2.992 0 0 1-.404-1.532c0-.57.036-.855.107-1.319a.574.574 0 0 1 .143-.249c.142-.392.25-.82.51-1.211.179-.392.476-.713.832-.962.25-.107.404-.214.617-.392.107-.036.179-.072.285-.143.511-.178 1.236-.392 1.853-.499l1.045-.213a6.531 6.531 0 0 1 1.2-.107c.582 0 1.128.071 1.591.107.25.106.582.142.832.178.582 0 1.2.142 1.77.32.249.072.581.179.866.214.25.036.475.107.796.214.404.142.831.32 1.27.499.321.035.654.107 1.01.32.32.179 1.414.535 1.817.713.44.214.939.392 1.45.606-.036 0-.036.035-.072.035-.404.25-.546.606-.831.855-.072.036-.107.107-.214.143-.214.143-.404.285-.51.463-.25.428-.583.784-.868 1.069-.356.499-.724 1.033-1.164 1.568-.178.427-.546.89-.867 1.318-.285.428-.582.926-.902 1.39l-.107.178c-.143.142-.25.285-.404.463-.178.178-.214.32-.32.534-.321.606-.69 1.14-.974 1.746-.072.072-.107.107-.143.214a.745.745 0 0 1-.214.143c-.213.035-.404.035-.582.106-1.01.214-2.137.25-3.194.464-.511 0-.974.142-1.485.213-.44 0-.76.072-1.128.143l-1.414.427c-.475.143-.867.285-1.413.428-.107.071-.214.107-.285.178-.475.25-.974.428-1.485.606-.213.107-.403.25-.581.356-.618.428-1.271.784-1.853 1.211-.356.428-.689.784-1.08 1.14-.072.107-.18.143-.25.25-.321.57-.618 1.033-.832 1.603-.178.428-.25.927-.285 1.426-.035.534-.035 1.104-.071 1.639.071.356.178.712.25 1.068.07.178.178.357.284.535.143.142.321.32.547.463.44.463.867.89 1.449 1.105.071 0 .142.035.178.106.142.107.356.179.617.214.214.072.44.143.69.178.32 0 .724-.035 1.092-.07.285-.037.653-.037.938-.143.368-.143.76-.179 1.093-.285.071-.036.142-.036.25-.072.403-.25.866-.498 1.27-.748.285-.107.51-.285.796-.499.07-.071.142-.142.25-.213.474-.357.866-.677 1.199-1.07.142-.142.285-.284.439-.391.51-.321.938-.784 1.306-1.247a.628.628 0 0 0 .143-.178c.285-.321.475-.713.724-.998.321-.32.511-.713.725-1.069a.78.78 0 0 1 .107-.178c.285-.535.475-.998.76-1.39.285-.534.546-1.069.796-1.496.32-.677.795-1.212 1.128-1.853.107-.178.32-.25.546-.32.071-.072.178-.072.25-.072.403-.071.795-.25 1.235-.214.142 0 .285-.07.404-.107.32-.035.581-.106.83-.213.25-.036.547-.107.832-.107.25 0 .475-.036.69-.143.284-.035.545-.178.83-.142.357 0 .69-.107.974-.107.107 0 .214.143.178.25-.07.213-.142.427-.249.64-.107.214-.107.5-.178.713-.036.25-.214.5-.285.784a8.355 8.355 0 0 1-.143.713c.036.25.178.498.321.677a.476.476 0 0 0 .214.178c.25.071.582.107.831-.036.071-.036.107-.036.107-.071.143-.178.214-.356.285-.535.071-.391.214-.677.285-.997.107-.392.178-.713.44-1.033a.95.95 0 0 0 .106-.428c.143-.606.476-1.211.939-1.71.07-.071.142-.143.25-.214.142-.071.284-.143.403-.25.32-.213.689-.391 1.045-.605.653-.356 1.045-.855 1.27-1.532h.013Zm-14.822 5.487c-.285.605-.582 1.14-.903 1.781-.404.855-.938 1.675-1.556 2.459-.107.142-.249.25-.285.427-.07.178-.142.357-.285.5a5.39 5.39 0 0 1-1.045 1.175 7.2 7.2 0 0 0-1.235 1.069c-.32.392-.76.677-1.2 1.033-.938.641-1.923.962-3.075 1.069-.44 0-.796 0-1.164-.107-.321-.036-.654-.214-.974-.32-.107-.036-.143-.072-.214-.108-.107-.142-.178-.249-.25-.32-.617-.642-.51-.606-.688-1.532-.036-.036 0-.072 0-.107.035-.535.071-1.033.214-1.603a3 3 0 0 1 .546-1.034c.178-.213.356-.427.582-.641.071-.107.214-.214.356-.428.178-.107.404-.25.582-.427.143-.178.368-.32.582-.392.25-.178.582-.285.796-.499.32-.25.689-.356 1.01-.534.439-.143.866-.464 1.199-.713.035-.036.071-.036.107-.107.617-.142 1.27-.392 1.852-.606.618-.178 1.342-.32 1.96-.285.546-.178 1.093-.107 1.591-.249.214-.036.404-.071.582-.036.321-.07.69-.07.974-.142.107 0 .214.142.214.285-.071.178-.143.25-.25.392h-.023ZM106.259 15.807h-.25c-.178 0-.368.072-.439.179-.143.213-.285.498-.511.748-.214.214-.285.534-.51.784-.582.784-.939 1.354-1.663 2.137-.071.072-.356.428-.475.535a6.478 6.478 0 0 1-.725.712c-.107.143-.285.25-.403.392-.404.392-.404.428-.974.784-.25.178-.44.285-.796.428-.143.071-.285.035-.44.071l-.249-.036c-.071 0-.25-.142-.285-.213-.178-.285-.25-.677-.178-.927-.036-.392.214-1.354.475-1.71.178-.32.689-1.39 1.08-2.173.405-.535 1.129-1.675 1.343-2.031.107-.107.178-.25.285-.357.582-.89.902-1.532 1.128-2.387.036-.142.036-.32 0-.463-.107-.392-.321-.605-.689-.712-.214-.072-.404-.214-.689-.25l-.902.107a1.54 1.54 0 0 0-.546.107c-.44.214-.107.107-.583.25-.475.142-.617.249-1.092.391-.285.072-.44.036-.32-.071.106-.392.142-.428.249-.784.035-.178 0-.499 0-.677 0-.32-.036-.427-.214-.89a1.037 1.037 0 0 0-.32-.428c-.036-.143-.25-.214-.405-.285-.106-.107-.213-.143-.403-.143h-.036c-.178 0-.653.214-.831.392-.404.321-.44.463-.654.855-.249.392-.403 1.461-.285 2.031l.143.5s.071.142.32.462c-.07.178-.178.357-.249.535-.142.285-.285.641-.475.962-.178.534-.618 1.175-.867 1.71l-.76 1.283s-.012.059-.024.095c-.415.546-.76 1.021-1.342 1.615-.071.071-.32.392-.44.499-.213.213-.439.463-.688.641-.107.142-.25.25-.356.392-.404.356-1.485.962-2.031 1.282-.107.036-.51.25-.618.286-.142.035-.32.035-.475.107-.285.142-.582.142-.903.142a3.862 3.862 0 0 1-1.555-.392c-.143-.071-.25-.214-.321-.356-.32-.677-.404-.998-.32-1.746.035-.036.035-.214.035-.25.25 0 1.128-.07 1.449-.106l1.52-.357c.974-.356 1.592-.748 2.138-1.247.142-.142.356-.285.546-.427a.78.78 0 0 0 .178-.107c.25-.356.582-.642.796-.998l.178-.32c.072-.107.356-.464.44-.606.07-.178.25-.356.32-.535l.214-.534c.107-.32.214-.606.25-.926 0-.25-.036-.5-.072-.713a1.237 1.237 0 0 0-.51-.89c-.214-.214-.475-.393-.725-.57-.32-.179-.653-.286-1.01-.215l-.938.179c-.106 0-.213.035-.32.07-.654.286-1.307.5-1.889.927-.617.32-1.08.748-1.484 1.283-.32.392-.653.784-.939 1.176l-.178.32a1.267 1.267 0 0 1-.142.321c-.048.071-.095.154-.143.238-.047.023-.095.047-.13.083-.143.213-.285.498-.511.748-.214.214-.285.534-.51.784-.583.784-.939 1.354-1.663 2.137-.072.072-.369.428-.475.535-.214.25-.44.499-.725.712-.107.143-.285.25-.404.392-.404.392-.404.428-.974.784-.285.143-.546.25-.795.357a1.902 1.902 0 0 1-.44.142l-.25-.036c-.07 0-.249-.142-.284-.213-.036-.25-.178-.535-.107-.784.071-.357.178-.748.404-1.069.25-.463.546-.89.76-1.354.44-.677.831-1.39 1.2-2.066.32-.535.76-1.283 1.044-1.818.214-.427.404-.89.475-1.354.072-.284.107-.534.036-.819-.035-.32-.107-.606-.368-.82-.178-.178-.32-.356-.475-.534l-.32-.107c-.868-.214-1.592-.071-2.424.143a.777.777 0 0 0-.285.178c-.76.427-1.555 1.14-2.316 1.853-.178.142-.83.641-.973.82-.072.07-.357.32-.618.498-.142.107-.071-.143-.035-.214.142-.25.439-.89.581-1.176.107-.178.404-.748.511-.962.107-.213-.035-.784-.214-.962-.035-.035-.07-.07-.107-.07-.249-.143-.546-.286-.867-.286-.142.071-.285.143-.356.285-.25.606-.546 1.176-1.01 2.102a24.133 24.133 0 0 1-.938 1.924c-.011.036-.035.071-.047.095-.214-.024-.392 0-.51.155l-.322.498a29.358 29.358 0 0 0-1.59 2.138c-.143.214-.44.535-1.343 1.425-.475.392-1.01.855-1.449 1.176-.107.071-.214.178-.356.285-.582.428-1.2.855-1.889 1.14-.035.036-.07.036-.106 0a.272.272 0 0 1-.072-.178 6.458 6.458 0 0 1 .511-1.532c.285-.606.546-1.211.76-1.817.071-.356.214-.677.404-.962.356-.606.689-1.211 1.128-1.746.51-.57.903-1.318 1.128-1.746.143-.285.25-.57.44-.82.285-.391.356-.854.356-1.317 0-.072-.035-.143-.071-.214-.107-.285-.25-.463-.546-.57-.143-.072-.285-.143-.44-.178-.107.035-.214.07-.285.142-.214.25-.404.499-.582.748-.035.072-.25.143-.285.107-.32-.178-.617-.356-.867-.605-.142-.072-.25-.214-.404-.25-.546-.214-1.092-.499-1.698-.32-.142 0-.285 0-.475-.036-.25 0-.546.035-.796.107a.849.849 0 0 0-.32.071c-.618.356-1.271.606-1.734 1.176-.214.32-.511.57-.796.82-.214.213-.404.391-.546.64-.511.749-1.046 1.497-1.485 2.317a1.443 1.443 0 0 0-.178.32c-.119.309-.261.606-.392.915-.071.107-.143.202-.166.26-.25.25-.44.607-.725.82-.107.143-.285.25-.404.392-.403.392-.795.642-1.377.998-.214.178-.475.178-.76.214-.547.035-.725-.107-.796-.143-.143-.107-.178-.285-.143-.392.25-.427.404-.89.654-1.282.249-.428.439-.855.582-1.319.178-.463.285-.926.475-1.354.035-.107.07-.249.07-.356v-.784a2.02 2.02 0 0 0-.106-.641l-.214-.499c-.107-.178-.071-.356-.071-.534.036-.25-.036-.428-.214-.606-.25-.32-.582-.57-.867-.89-.356-.108-.653-.25-.938-.286-.32-.071-.689-.035-1.01-.035-.546.035-1.045.213-1.52.392a8.6 8.6 0 0 0-.582.32 12.22 12.22 0 0 1-1.306 1.069c-.143.071-.25.178-.368.285a7.978 7.978 0 0 0-1.414 1.853c-.107.19-.213.404-.332.617h-.071c-.036-.035-.214 0-.25 0-.107 0-.32.036-.44.178-.142.214-.284.5-.51.749-.214.213-.285.534-.51.784-.583.783-.939 1.354-1.663 2.137-.072.072-.368.428-.475.535-.214.25-.44.499-.725.712-.107.143-.285.25-.404.392-.403.392-.403.428-.974.784-.285.143-.546.25-.795.357a1.91 1.91 0 0 1-.44.142l-.32.036c-.143 0-.214 0-.404-.107-.143-.178-.214-.392-.178-.57.035-.749.213-1.461.582-2.102l.106-.214c.357-.642.76-1.212 1.129-1.853.107-.142.178-.285.285-.392.285-.392.51-.855.796-1.283.285-.391.653-.783.902-1.211.107-.107.178-.25.285-.356.582-.855.903-1.497 1.128-2.388.036-.142.036-.32 0-.463-.106-.356-.285-.605-.688-.712-.214-.072-.404-.214-.69-.25l-.902.107c-.178 0-.32.036-.475.107-.356.214-.724.178-1.093.32-.83.322-1.199.464-1.377.464-.107-.036-.143-.107-.107-.178l.44-1.176c.07-.178.106-.356.142-.57.035-.392.035-.748-.071-1.14a.776.776 0 0 0-.178-.285 1.011 1.011 0 0 0-.321-.356c-.107-.107-.25-.143-.404-.143-.142-.036-.25-.036-.368-.036-.25 0-.475.072-.653.214-.511.356-.832.82-1.01 1.39-.214.677-.178 1.354-.107 2.03 0 .036.036.072.036.107.035.072.071.179.107.214.142.143.25.285.356.428-.107.178-.214.32-.285.499-.25.391-.546.712-.724 1.069-.036.106-.072.213-.179.284-.32.286-.475.606-.724.963-.178.392-.475.748-.724 1.14-.357.534-.725 1.104-1.129 1.639l-.107.213c-.213.642-.653 1.212-.902 1.853a3.857 3.857 0 0 0-.285.677c-.036.107-.036.178-.107.285-.143.32-.25.713-.356 1.105-.107.427-.072.926-.214 1.354-.036.07 0 .178 0 .249 0 .499.178.962.475 1.354.142.178.32.392.546.499.404.25.618.25.867.142a.775.775 0 0 1 .178-.285.422.422 0 0 0 .036-.356c-.107-.214-.143-.428-.285-.641-.107-.143-.107-.357-.178-.535 0-.285.035-.534.07-.82.072-.57.322-1.068.476-1.638.107-.357.25-.748.475-1.07.178-.249.404-.498.475-.783.32-.784.831-1.496 1.2-2.245.07-.107.142-.213.213-.285.25-.356.547-.748.76-1.176.143-.178.286-.356.369-.57l.724-.926c.25-.356.44-.748.653-1.14 0 .035.036.035.036.035.32.072.653.107.938.072.178.071.357-.107.582-.107.32-.036.653-.214.974-.25.404.036.724-.142 1.128-.285h.214a.196.196 0 0 1 .107.179c0 .035 0 .07-.036.106-.178.321-.356.678-.582.998-.653.962-1.413 1.853-1.995 2.85-.071.107-.142.179-.214.285l-.249.357c-.546.82-1.01 1.674-1.449 2.53-.071.106-.107.213-.142.32-.107.499-.285.962-.321 1.461a1.039 1.039 0 0 0-.071.32c.035.286 0 .535.07.82.036.25.179.499.357.677.143.143.32.25.475.392.178.178.51.178.725.25.44.07.724.035 1.092.035.107-.036.511-.107.653-.107.44 0 1.093-.392 1.45-.57.368-.214.724-.499 1.163-.855 0-.071.178-.142.321-.25.107-.142.404-.32.582-.57.285-.249.582-.534.76-.783.463-.511.784-.891 1.069-1.342v.487c-.036.178-.036.285-.036.427-.071.784.036 1.568.404 2.28.071.107.107.178.143.285.035.072.07.143.142.179.285.32.582.57.938.783a.574.574 0 0 0 .321.107c.107.036.285.036.44.036 1.377 0 1.555 0 2.577-.57.07-.071.142-.071.213-.107a6.74 6.74 0 0 0 1.164-.89c.285-.428.69-.749 1.01-1.14.071-.072.142-.072.214-.108.44.178.795.428 1.377.535.44 0 1.01-.036 1.271-.143.285-.142.867-.356 1.2-.57.486-.332.593-.404.807-.594-.035.357-.024.7 0 1.057.214.57.368 1.176.867 1.675.285.214.653.32 1.01.427.404.107.76.178 1.164 0l.581-.107c.511-.142 1.046-.32 1.45-.712.285-.214.581-.392.902-.535l.071.036a.346.346 0 0 1 .036.32c-.142.357-.32.713-.475 1.07a1.89 1.89 0 0 1-.653.784c-.297.213-.618.391-.867.57-.404.285-.796.534-1.2.748-.795.427-1.591.89-2.28 1.46-.178.143-.32.321-.546.428-.547.32-.939.784-1.378 1.247l-1.164 1.283c-.44.499-.796 1.033-.938 1.71-.107.499-.143.998.071 1.46 0 .357.178.57.44.785.106.142.249.285.439.392a.71.71 0 0 0 .51.213c.582.072 1.2.107 1.77.072.143 0 .285-.072.44-.107.546-.178.973-.5 1.448-.784.369-.214.618-.606.868-.927.106-.106.178-.249.249-.391.546-.784 1.045-1.604 1.591-2.387.357-.678.832-1.319 1.093-2.067.285-.463.44-.962.618-1.46.106-.215.178-.428.285-.642.07-.214.107-.463.285-.642a4.389 4.389 0 0 1 1.449-.926c.107-.071.178-.142.285-.178.582-.285 1.045-.677 1.591-.998.356-.25.725-.463 1.045-.748.285-.285.69-.499 1.01-.748.202-.154.285-.226.344-.273-.214.415-.487.89-.724 1.2-.143.142-.143.356-.143.534a.227.227 0 0 0 0 .213c.071.285.285.57.546.57.44 0 .725-.106.939-.213a1.55 1.55 0 0 1 .25-.214c.367-.285.32-.606.581-.998.32-.534.903-1.532 1.306-2.03.036-.072.25-.428.69-1.034.284-.392.546-.748.795-1.033.143-.214 1.27-1.46 1.449-1.639l.974-.89c.142-.108 1.128-.82 1.235-.927l1.698-1.283c.321-.213.654-.427.974-.605.178-.143.547-.143.796-.107.142 0 .285.178.25.32 0 .214-.036.392-.108.57a7.495 7.495 0 0 1-.688 1.426l-.867 1.353c-.143.321-.285.606-.511.891-.285.392-.582.784-.796 1.247a2.302 2.302 0 0 1-.32.57c-.214.214-.321.535-.44.784-.107.214-.107.428-.142.677.035.143-.036.285-.036.428-.107.463-.107.926.036 1.354.32.498.688.926 1.235 1.175.44.072.902.072 1.377-.035a1.1 1.1 0 0 1 .357-.036c.44 0 1.092-.392 1.449-.57.356-.214.724-.499 1.163-.855 0-.071.179-.142.321-.25.107-.142.404-.32.582-.57.285-.249.582-.534.76-.783.143-.155.273-.297.392-.44-.024.392.048.784.178 1.152 0 .072 0 .143.036.214.036.285.142.535.32.748.286.32.583.642.868.927.213.178.439.356.688.427.582.143.939.25 1.556.214 1.164-.071 2.245-.356 3.23-.926.214-.107.583-.357.76-.5.286-.177 1.236-.89 1.414-.997.107-.107.356-.285.546-.499.25-.25.547-.498.725-.748.582-.606.903-1.033 1.27-1.674.511-.464.618-.856 1.046-1.426.047-.083.154-.297.25-.51.272-.392.534-.808.854-1.271.072-.071.44-.784.618-1.176.142-.25.25-.428.356-.606l.368.036c.214-.036.796-.214 1.045-.214.44-.071.44-.178.832-.213.475-.072.546-.214 1.009-.357h.214a.196.196 0 0 1 .107.178c0 .036 0 .072-.036.107-.178.32-.32.677-.546.998-1.164 1.71-1.77 2.672-2.173 3.349-.072.178-.475.962-.654 1.39-.213.463-.356.997-.439 1.247-.107.213-.107.427-.142.677.035.142 0 .285 0 .427-.072.392-.036.855.178 1.425.51.642.831.927 1.27 1.105.321.142.796.178 1.2.071.107-.036.214-.036.356-.107.44 0 1.093-.392 1.449-.57.25-.142.511-.356 1.164-.855 0-.071.178-.142.321-.25.107-.142.404-.32.582-.57.356-.32.617-.605.76-.783.724-.784 1.009-1.212 1.342-1.817.546-.535.653-.927 1.128-1.568.178-.356.475-1.069.475-1.14.036-.285 0-.392-.178-.535-.143-.107-.285-.071-.368-.107l-.095-.012Zm-55.903-1.389c-.107.143-.214.285-.32.392-.76 1.104-.867 1.283-1.129 2.53-.178.463-.213.926-.178 1.46l.107 1.247c-.214.25-.356.428-.475.642-.368.57-.903 1.033-1.485 1.425-.106.107-.285.178-.475.25-.25.07-.475.106-.617.213-.357.178-.654.178-1.01.107-.356-.107-.582-.32-.76-.677-.036-.107-.036-.25-.071-.32-.178-.535-.25-1.07-.178-1.604l.107-.606a7.733 7.733 0 0 1 .44-1.888c.106-.285.284-.534.439-.82.439-.534.688-1.14 1.045-1.638.285-.464.795-.82 1.163-1.248.036-.035.107-.07.179-.106.368-.214.617-.428.974-.57.249-.143.617-.286 1.009-.286.214.036.475 0 .653 0a.84.84 0 0 1 .44.143c.07 0 .142.036.142.107.214.392.285.784 0 1.247Zm8.207 13.029c-.071.178-.107.391-.214.534-.285.534-.51 1.14-.867 1.639-.071.107-.178.25-.214.392-.404.784-.938 1.425-1.449 2.102-.213.32-.51.57-.831.784-.178.107-.32.213-.475.32a1.21 1.21 0 0 1-.689.214h-.178c-.107-.035-.178-.035-.285-.035-.285-.036-.51-.072-.582-.57-.071-.357 0-.677.178-.998l.653-.82c.072-.107.178-.249.285-.356.511-.427.974-.89 1.45-1.354a6.34 6.34 0 0 1 1.08-.855l1.888-1.176c.072-.035.143-.035.214-.035.072.035.072.142.036.213Zm1.84-7.376c-.617.641-1.341 1.212-2.066 1.71-.44.285-.938.428-1.449.5-.213.035-.44-.072-.582-.286a1.983 1.983 0 0 1-.32-1.283c0-.427.107-.926.249-1.425.19-.522.404-1.045.63-1.567.094-.167.166-.345.237-.523.392-.724.808-1.413 1.306-2.078.214-.285.475-.535.69-.784.106-.107.617-.677 1.163-1.07.25-.248.76-.32 1.128-.391.25-.036.511 0 .725-.036.76 0 1.27.25 1.663.82.07.071.106.178.178.285.142.25.107.534 0 .784-.178.392-.32.784-.547 1.14a6.945 6.945 0 0 0-.51 1.033c-.143.392-.368.713-.582.998a18.648 18.648 0 0 1-1.924 2.173h.012Zm24.787-3.55c.475-.998 1.045-1.497 1.627-2.032.107-.071.25-.178.356-.285.404-.499.939-.784 1.52-.998.25-.106.547-.178.796-.249.285-.071.653.178.653.499.036.392-.035.748-.213 1.104-.214.5-.547.927-.903 1.354-.44.428-1.627 1.568-2.316 1.889-.582.25-1.164.392-2.173.392-.036-.072.035-.357.107-.57.035-.107.07-.25.142-.392.143-.25.285-.463.404-.713ZM140.998 14.988l.142-.784c.036-.356.071-.641.036-.855-.036-.32 0-.641.071-1.211.036-.214.071-.357.036-.428 0-.427-.036-.89-.036-1.318-.036-.25-.036-.499-.143-.748a2.54 2.54 0 0 1-.106-.749c-.036-.32-.143-.64-.214-.962-.143-.392-.25-.748-.356-1.175-.107-.392-.25-.749-.511-1.07-.25-.356-.44-.747-.832-1.032-.106-.036-.178-.107-.213-.25-.072-.142-.214-.32-.547-.534-.213-.179-.32-.392-.582-.535-.653-.427-1.306-.926-1.959-1.39a2.088 2.088 0 0 0-.404-.249l-.76-.427c-.689-.25-1.378-.606-2.138-.677-.178 0-.356-.036-.546-.107a12.098 12.098 0 0 0-1.081-.285c-.321-.143-.653-.143-.974-.143-.689-.035-1.342-.035-2.031-.071-.213 0-.32 0-.439.036-.285.035-.582.035-.867.07-.404 0-.546 0-.689.037-.404.035-.796.106-1.199.178-.143 0-.179 0-.25.035-.107.036-.249.107-.404.143-.403.107-.76.25-1.164.356-.106 0-.213.071-.32.107-.796.32-1.52.748-2.281 1.14-.213.107-.439.25-.653.463-.32.285-.795.535-1.045.927-.035.035-.107.071-.178.142-.653.428-1.093 1.07-1.627 1.675-.321.499-.725.962-1.01 1.532a2 2 0 0 0-.356.677c-.107.392-.285.748-.475 1.14l-.142.499c-.036.32-.107.677-.107.962v.25c.035.462 0 .961 0 1.353.142.641.403 1.176.51 1.782.072.106.143.213.179.356.356.499.688 1.033 1.092 1.568.285.498.725.962 1.235 1.39.107.106.178.142.25.213l.213.214c.44.25.832.498 1.343.641l.475.25c.142.035.249.32.213.463-.107.249-.249.427-.32.677-.143.392-.25.605-.475.89-.214.214-.321.57-.511.82-.071.25-.178.427-.321.57-.32.32-.475.499-.546.712-.404.57-.724.962-1.128 1.354-.178.214-.404.428-.582.713a.846.846 0 0 1-.475.25c-.547-.25-1.164-.464-1.699-.785-.142-.07-.249-.142-.403-.178-.44-.07-.832-.32-1.236-.427-.32 0-.617-.036-.902-.036-.25 0-.974.143-1.093.214-.404.214-.796.356-1.199.641-.285.285-.654.463-.939.713-.035.25-.107.427-.142.641-.107.428-.036.89.214 1.283.178.285.356.534.582.784.142.178.249.32.403.356.369.214.689.463 1.129.499.178 0 .368.107.546.142.178.072.439.107.653.143.214 0 .44.036.689.036l.511-.179c.51-.07.974-.25 1.995-.677.178-.106.321-.178.439-.32.143-.178.404-.25.618-.357.107-.035.249 0 .511.072.107.07.213.142.439.356.725.534 1.306.855 1.853 1.033.142.036.285.143.475.25.178.07.321.142.546.178.404.071.796.107 1.2.178.546.107 1.009.178 1.556.178.688 0 .831 0 1.128.071.51.072 1.009.036 1.52.072.321 0 .582-.107.903-.143.213 0 .356 0 .546-.071.475-.036.938-.143 1.413-.25.178-.07.404-.106.547-.142l.867-.214c.546-.178 1.08-.32 1.555-.606.25-.142.44-.285.689-.356.25-.107.511-.32.76-.463.511-.285.903-.57 1.2-.82.689-.427 1.199-.855 2.031-1.532.213-.178.32-.32.439-.498.143-.179.321-.321.582-.535.178-.107.404-.356.618-.641.107-.178.178-.357.356-.535.356-.356.546-.855.903-1.247.142-.285.32-.534.439-.89 0-.107.071-.214.107-.285.285-.57.546-1.14.831-1.675l.214-.499c.071-.32.107-.499.178-.641.356-.713.44-1.461.689-2.21v-.213h-.059Zm-26.77 11.247a7.16 7.16 0 0 1-1.2.499c-.142.071-.32.071-.475.107-.178 0-.439.035-.582.035-.546.036-1.009-.107-1.52-.427l-.213-.214c-.072-.142-.107-.25-.179-.427-.071-.107-.035-.179.072-.285.071-.072.142-.179.249-.25.249-.214.618-.392 1.045-.499.285-.035.404-.035.546.036.689.214 1.378.499 2.245.926.071.036.107.143.143.178.035.072-.036.214-.143.321h.012Zm25.143-13.99c-.036.107-.036.213-.036.57 0 .107.036.213-.036.32-.107.178-.107.392-.071.748 0 .642-.107 1.283-.368 1.925a6.08 6.08 0 0 0-.25.855 31.535 31.535 0 0 1-.724 1.96c-.356.747-.653 1.282-.903 1.745-.178.392-.403.677-.653 1.033-.511.855-1.199 1.497-1.817 2.21-.071.07-.107.07-.178.142l-.25.214c-.403.285-.724.641-1.128.89-.214.143-.404.25-.724.535a.78.78 0 0 1-.285.178c-.653.32-1.271.748-1.96 1.033-.214.143-.475.25-.831.356-.582.143-1.235.25-1.817.464-.107.035-.179.071-.321.071-.475.071-.903.107-1.77.214-.071.035-.107.035-.32.035-.903-.035-1.817 0-2.684-.142-.179-.036-.357-.036-.547-.071-.178 0-.32 0-.546-.072-.249-.07-.439-.142-.653-.178-.321-.035-.653-.214-.974-.25-.725-.427-1.449-.783-1.96-1.424-.071-.072-.071-.143 0-.214.107-.178.25-.357.404-.535.356-.356.653-.783.974-1.175.142-.143.178-.178.214-.25.439-.712 1.009-1.39 1.413-2.102.214-.356.404-.712.618-1.033.213-.32.356-.677.546-.962l.142-.214a.44.44 0 0 1 .357-.178c.249 0 .51.035.689.071.403.107.76.143 1.199.107.178 0 .368.036.582.036.368-.036.796-.036 1.2-.214.142-.036.356-.036.51-.071a4.011 4.011 0 0 0 1.342-.57c.404-.179.725-.392 1.093-.606.321-.178.653-.463 1.045-.784a1.36 1.36 0 0 0 .321-.32 1.82 1.82 0 0 1 .582-.642c.213-.285.32-.392.368-.427.071-.179.214-.392.321-.57.106-.143.071-.286-.036-.428-.071-.107-.214-.214-.321-.214h-.582a.728.728 0 0 0-.51.214c-.214.214-.404.392-.582.641-.107.178-.25.32-.475.463-.179.107-.321.25-.76.677a.929.929 0 0 1-.369.285c-.249.178-.582.285-.831.463a4.035 4.035 0 0 1-1.164.464c-.511.071-1.009.107-1.556.107-.439-.072-.724-.072-1.235-.072-.142 0-.249-.285-.178-.463.036-.071.036-.142.071-.214.321-.463.618-.997.903-1.745.214-.321.32-.749.475-1.07.249-.463.439-.89.653-1.282.285-.428.475-.855.76-1.247.107-.107.143-.214.214-.356.107-.178.214-.357.404-.535.404-.499.831-.962 1.235-1.425.178-.25.404-.427 1.093-.784.071-.035.213-.071.32-.107.44-.107.903-.25 1.414-.25.106 0 .178-.035.249-.177.071-.071.142-.178.249-.392.107-.214-.071-.535-.32-.606-.036 0-.072-.035-.072-.035-.795-.107-1.449-.072-2.03.106l-.511.143c-.25.142-.475.25-.689.392-.475.285-.938.641-1.627 1.318-.036.036-.036.071-.107.178-.178.285-.404.535-.582.82-.178.25-.404.427-.617.641l-.179.285c-.213.463-.582.855-.831 1.283-.071.107-.107.214-.178.499-.107.285-.178.498-.321.712-.249.285-.404.57-.475.962a.501.501 0 0 1-.071.214c-.071.285-.285.499-.356.82-.072.249-.214.463-.321.676a1.794 1.794 0 0 1-.321.57.477.477 0 0 1-.249.214l-.107.036c-.903-.214-1.52-.499-1.995-.927-.107-.142-.214-.249-.321-.284a3.92 3.92 0 0 1-.546-.57l-1.164-1.675c-.618-1.675-.475-1.604-.511-2.708 0-.57.036-.82.178-1.105.072-.463.285-.962.618-1.603.178-.356.249-.463.285-.606.107-.463.404-.783.653-1.14.285-.392.582-.784.974-1.033.285-.356.689-.713 1.235-1.104a5.852 5.852 0 0 1 1.698-1.07c.179-.07.286-.177.476-.284.285-.214.546-.357.902-.428.25-.036.546-.214.832-.25.356-.106.546-.177.724-.213.285-.071.546-.107.796-.107.403.036.795 0 1.235-.036.724-.107 1.556-.107 2.684 0 .404 0 1.199.143 1.734.357.475.107.974.32 1.449.498.249.072.404.179.617.25.404.214.796.427 1.164.641.321.178.618.392.903.642.321.249.582.57.974.748.178.178.368.356.546.57.321.285.618.641.938.962.582 1.033.939 2.173 1.164 3.385l.107.463c0 .071.071.178.036.285 0 .641.142 1.247.035 1.853h-.011ZM212.054 8.789c.036.107.475.107.582.178.25 0 .475 0 .654-.178.106 0 .32-.285.32-.321.511-.499.321-1.318-.071-1.995-.178-.321-.724-.428-1.01-.285-.653.142-.902.498-1.08 1.069-.036.142-.036.285-.036.356 0 .534.107.82.653 1.176h-.012Z"/><path d="M240.784 15.915c-.143-.107-.285-.072-.356-.107-.036-.036-.214 0-.25 0-.107 0-.32.035-.439.178-.143.213-.285.498-.511.748-.214.214-.214.534-.475.784-.546.784-.903 1.354-1.591 2.138-.072.07-.321.427-.44.534-.214.25-.439.499-.724.713-.107.142-.25.249-.368.392-.392.391-.761.676-1.343 1.033-.178.178-.439.25-.724.285-.439.107-.831 0-1.01-.214-.213-.178-.32-.392-.439-.677-.285-.962-.511-2.387-.439-3.278 0-.035.071-.107.142-.142a.962.962 0 0 1 .44-.107c.546-.036 1.08-.143 1.591-.392.285-.107.582-.214.831-.357.321-.178.689-.356 1.129-.534.035-.107.178-.25.285-.392.142-.178.285-.356.475-.499.214-.142.368-.356.546-.57.178-.25.404-.463.546-.748.107-.25.285-.463.44-.677a.852.852 0 0 0 .214-.392l.106-.463c-.106-.25.036-.463.036-.748 0-.072-.036-.143-.071-.214-.178-.392-.44-.641-.867-.713-.143-.035-.321 0-.44-.035-.32-.107-.617-.072-.902.035-.285.072-.582.143-.867.321-.143.107-.321.143-.511.25-.142.035-.285.142-.404.249-.356.285-.76.499-1.128.784-.321.285-.724.57-1.093.82-.867.605-1.662 1.246-2.351 1.995-.321.356-.689.64-1.045.962-.071.035-.143.07-.178.035-.072-.035-.107-.107-.072-.214.285-.498.547-1.033.76-1.532.107-.178.25-.32.404-.427.404-.321.76-.677 1.045-1.07.25-.356.511-.64.796-.961.285-.285.582-.677.903-.998.392-.356.582-.784.938-1.176.142-.142.214-.392.321-.605.071-.143.178-.25.213-.392.321-.784.796-1.497.974-2.28-.035-.464-.213-.749-.689-.891l-.795.107a.952.952 0 0 0-.404.213 1.955 1.955 0 0 0-.285.214c-.974.962-1.888 2.067-2.494 3.35-.143.284-.25.57-.44.819-.249.534-.51 1.104-.867 1.639a.86.86 0 0 0-.213.356 2.61 2.61 0 0 1-.321.713c-.214.25-.214.57-.368.855-.107.142-.178.32-.285.499-.071.178-.143.32-.25.498-.035.06-.059.12-.095.19h-.035c-.036-.035-.214 0-.25 0-.107 0-.32.036-.439.179-.143.213-.285.498-.511.748-.214.214-.214.534-.475.784-.546.784-.902 1.354-1.591 2.137-.072.072-.321.428-.44.535-.214.25-.439.499-.724.712-.107.143-.25.25-.368.392-.392.392-.76.677-1.342 1.034-.179.178-.44.249-.725.285-.439.107-.831 0-1.009-.214-.214-.178-.321-.392-.44-.677-.285-.962-.511-2.387-.439-3.278 0-.036.071-.107.142-.142a.962.962 0 0 1 .44-.107c.546-.036 1.08-.143 1.591-.392.285-.107.582-.214.832-.357.32-.178.688-.356 1.128-.534.035-.107.178-.25.285-.392.142-.178.285-.356.475-.499.214-.142.368-.356.546-.57.178-.25.404-.463.546-.748.107-.25.286-.463.44-.677a.852.852 0 0 0 .214-.392l.107-.463c-.107-.25.035-.463.035-.748a.5.5 0 0 0-.071-.214c-.178-.392-.439-.642-.867-.713-.143-.035-.321 0-.439-.035-.321-.107-.618-.072-.903.035-.285.072-.582.143-.867.321-.143.107-.321.143-.511.25-.142.035-.285.142-.404.249-.356.285-.76.499-1.128.784-.32.285-.724.57-1.092.82-.867.605-1.663 1.246-2.352 1.994-.321.357-.689.642-1.045.962-.071.036-.143.072-.178.036-.072-.036-.107-.107-.072-.214.286-.499.547-1.033.761-1.532.106-.178.249-.32.403-.427.404-.321.76-.677 1.046-1.07.249-.356.51-.64.795-.961.285-.285.582-.677.903-.998.392-.356.582-.784.938-1.176.143-.142.214-.392.321-.605.071-.143.178-.25.214-.392.32-.784.795-1.497.973-2.28-.035-.464-.213-.749-.688-.891l-.796.107a.952.952 0 0 0-.404.213 1.955 1.955 0 0 0-.285.214c-.974.962-1.888 2.067-2.494 3.35-.143.284-.249.57-.439.819-.25.534-.511 1.104-.867 1.639a.85.85 0 0 0-.214.356 2.58 2.58 0 0 1-.321.713c-.214.249-.214.57-.368.855-.107.142-.178.32-.285.498-.071.179-.143.321-.25.5-.047.094-.095.19-.13.284h-.048c-.107 0-.356 0-.475.143-.142.214-.32.499-.582.748-.213.178-.249.499-.546.748-.618.784-1.01 1.319-1.781 2.102-.107.072-.357.428-.476.535-.249.25-.475.499-.76.712-.107.143-.285.25-.392.392-.403.392-.795.677-1.377 1.034-.392.142-.725.178-.867.07-.036-.07-.107-.142-.107-.213-.036-.178-.071-.356-.036-.57.036-.427.25-.855.285-1.318a.51.51 0 0 1 .072-.25c.071-.178.106-.356.213-.534a10.1 10.1 0 0 1 .475-1.033c.143-.357.285-.713.547-1.034.071-.106.142-.249.213-.391.321-.784.761-1.533 1.2-2.245.392-.641 1.01-1.924 1.271-2.601l-.107-.356c-.036-.179-.143-.25-.321-.286-.035 0-.071-.035-.107-.035-.368-.036-.688.071-.902.392-.214.285-.44.57-.582.855-.25.57-.867 1.746-1.235 2.245-.143.273-.297.546-.452.82-.118.023-.213.07-.261.142-.142.213-.285.498-.511.748-.213.214-.285.534-.51.784-.582.784-.939 1.354-1.663 2.137-.071.072-.368.428-.475.535a6.487 6.487 0 0 1-.725.712c-.106.143-.285.25-.403.392-.404.392-.404.428-.974.784-.25.178-.44.285-.796.428-.142.071-.285.035-.439.071l-.25-.036c-.071 0-.249-.142-.285-.213-.178-.285-.249-.677-.178-.927-.036-.392.214-1.354.475-1.71.178-.32.689-1.39 1.093-2.173a39.078 39.078 0 0 0 1.342-2.031c.107-.107.178-.25.285-.357.582-.89.902-1.532 1.116-2.387.036-.142.036-.32 0-.463-.107-.392-.32-.606-.689-.713-.213-.07-.392-.213-.688-.249l-.903.107a1.49 1.49 0 0 0-.546.107c-.44.214-.107.107-.582.25-.475.142-.618.249-1.093.391-.285.072-.439.036-.321-.071.107-.392.143-.428.25-.784.035-.178 0-.499 0-.677 0-.32-.036-.427-.214-.89a1.034 1.034 0 0 0-.321-.428c-.035-.143-.249-.214-.403-.285-.107-.107-.214-.143-.404-.143h-.036c-.178 0-.653.214-.831.392-.404.32-.44.463-.653.855-.25.392-.404 1.461-.286 2.031l.143.5s.071.142.321.462c-.072.178-.178.357-.25.535-.142.285-.285.641-.475.962-.178.534-.617 1.175-.867 1.71l-.76 1.283a.697.697 0 0 0-.059.273c-.404.593-.76 1.104-1.33 1.757-.072.072-.321.428-.44.535-.214.25-.439.499-.689.712-.107.143-.249.25-.368.392-.404.392-.76.677-1.306 1.034-.178.178-.404.249-.689.285-.618 0-.831-.178-.903-.214-.285-.214-.475-.82-.439-1.176.071-.784.035-1.211.321-1.924.142-.285.249-.57.368-.855.178-.641.439-1.247.867-1.746.213-.285.368-.605.582-.89a32.7 32.7 0 0 0 1.342-1.746 17.715 17.715 0 0 0 1.662-2.21 13.99 13.99 0 0 0 1.271-2.066c.511-.926.796-1.532 1.2-2.637l.213-.819c.036-.143 0-.32-.035-.463a1.966 1.966 0 0 0-.321-.606c-.035-.035-.107-.107-.178-.107a.913.913 0 0 0-.796.143c-.368.214-.867.57-1.199.997-.832.855-1.01 1.319-1.449 2.067a9.91 9.91 0 0 0-.44.855c-.582 1.104-1.128 1.746-1.627 2.922-.107.178-.213.213-.356.107-.439-.357-.903-.535-1.413-.678a2.792 2.792 0 0 0-.974-.178 5.823 5.823 0 0 0-2.031.606c-.796.356-1.52.855-2.138 1.354-.51.392-.938.784-1.306 1.283-.404.605-.784 1.2-1.188 1.77a3.455 3.455 0 0 1-.19.249c-.178.178-.249.498-.475.712-.546.713-.903 1.247-1.591 1.96-.072.071-.321.392-.44.499-.214.213-.439.463-.689.641-.107.143-.249.25-.356.392-.404.356-1.485.962-2.031 1.283-.107.035-.511.249-.617.285-.143.035-.321.035-.475.107-.285.142-.582.142-.903.142a3.862 3.862 0 0 1-1.556-.392c-.142-.071-.249-.214-.321-.356-.32-.677-.403-.998-.32-1.746.035-.036.035-.214.035-.25.25 0 1.129-.07 1.449-.106l1.521-.357c.973-.356 1.591-.748 2.137-1.247.143-.142.357-.285.547-.427.071-.036.142-.071.178-.107.249-.356.582-.641.795-.998l.179-.32c.071-.107.356-.463.439-.606.071-.178.249-.356.321-.534l.214-.535c.106-.32.213-.606.249-.926 0-.25-.036-.5-.071-.713a1.238 1.238 0 0 0-.511-.89c-.214-.214-.475-.393-.725-.57-.32-.179-.653-.286-1.009-.214l-.938.178c-.107 0-.214.035-.321.07-.653.286-1.306.5-1.888.927-.618.321-1.081.748-1.485 1.283-.32.392-.653.784-.938 1.176l-.178.32c-.036.107-.071.214-.143.321a4.54 4.54 0 0 0-.154.25c-.036.023-.083.047-.095.07-.143.215-.285.5-.511.749-.214.214-.214.534-.475.784-.546.784-.903 1.354-1.591 2.138-.072.07-.321.427-.44.534a6.41 6.41 0 0 1-.724.713c-.107.142-.25.249-.368.392-.357.356-.689.605-1.342 1.033-.143.142-.404.25-.725.285-.356 0-.689-.178-.724-.392-.072-.285-.107-.499-.072-.677 0-.356 0-.463.036-.57 0-.32.071-.713.178-1.14.071-.214.107-.428.178-.677.072-.178.107-.357.214-.535.249-.463.475-.962.725-1.425.724-1.354.938-1.71 1.235-2.138.213-.32.368-.677.653-.962.178-.32.356-.57.546-.926.143-.356.178-.713.143-1.033 0-.107-.036-.214-.143-.428a.267.267 0 0 0-.249-.178c-.107 0-.25-.036-.368.036-.404.142-.725.392-.903.677-.285.427-.404.605-.475.784-.107.249-.249.498-.368.64-.178.25-.321.535-.511.785-.475.57-.724 1.14-1.199 1.745-.285.392-.547.82-.832 1.247-.285.392-.51.642-.76.856-.214.213-.404.463-.617.677-.107.142-.179.249-.285.356-.511.606-.974 1.069-1.996 2.03-.51.464-.974.785-1.413 1.034-.107.107-.285.107-.582.071a.306.306 0 0 1-.285-.285c-.036-.32-.036-.534.036-.712.106-.428.178-.891.32-1.319.143-.427.368-.855.689-1.496.356-.641.653-1.283 1.01-1.924.32-.57.688-1.354 1.009-1.924.404-.748.725-1.425 1.128-2.21.072-.106.107-.284.143-.427.036-.07 0-.142 0-.213-.107-.214-.178-.321-.25-.392-.106-.178-.403-.285-.617-.178a.953.953 0 0 0-.404.213c-.071.072-.142.143-.285.357-.249.391-.475.82-.724 1.211-.214.392-.404.748-.654 1.14-.297.451-.605.974-.89 1.508-.036 0-.083 0-.107-.023-.036-.036-.214 0-.25 0-.107 0-.32.035-.439.178-.143.214-.285.499-.511.748-.214.214-.285.534-.51.784-.582.784-.939 1.354-1.663 2.138-.071.07-.368.427-.475.534-.214.25-.44.499-.725.713-.107.142-.285.25-.403.392-.404.392-.404.427-.974.784-.285.142-.547.249-.796.356a1.913 1.913 0 0 1-.439.142l-.321.036c-.143 0-.214 0-.404-.107-.142-.178-.214-.392-.178-.57.036-.748.214-1.46.582-2.102l.107-.214c.356-.641.76-1.211 1.128-1.853.107-.142.178-.285.285-.392.285-.392.511-.855.796-1.282.285-.392.653-.784.902-1.212.107-.107.179-.25.285-.356.582-.855.903-1.496 1.129-2.387.035-.143.035-.32 0-.463-.107-.357-.285-.606-.689-.713-.214-.071-.404-.214-.689-.25l-.903.108c-.178 0-.32.035-.475.107-.356.213-.724.178-1.092.32-.832.32-1.2.463-1.378.463-.107-.035-.143-.107-.107-.178l.44-1.176c.071-.178.106-.356.142-.57.036-.392.036-.748-.071-1.14a.784.784 0 0 0-.178-.285 1.014 1.014 0 0 0-.321-.356c-.107-.107-.249-.143-.404-.143-.142-.035-.249-.035-.368-.035-.249 0-.475.071-.653.213-.511.357-.832.82-1.01 1.39-.213.677-.178 1.354-.107 2.03 0 .037.036.072.036.108.036.071.071.178.107.214.142.142.249.285.356.427-.107.178-.214.32-.285.499-.249.392-.546.713-.724 1.069-.036.107-.072.214-.178.285-.321.285-.475.606-.725.962-.178.392-.475.748-.724 1.14-.357.534-.725 1.104-1.129 1.639l-.106.214c-.214.641-.654 1.211-.903 1.853a3.83 3.83 0 0 0-.285.676c-.036.107-.036.179-.107.286-.143.32-.249.712-.356 1.104-.107.428-.072.926-.214 1.354-.036.071 0 .178 0 .25 0 .498.178.961.475 1.353.142.178.321.392.546.499.404.25.618.25.867.143a.785.785 0 0 1 .178-.285.418.418 0 0 0 .036-.357c-.107-.214-.142-.427-.285-.641-.107-.143-.107-.356-.178-.535 0-.285.035-.534.071-.819.071-.57.321-1.069.475-1.639.107-.356.25-.748.475-1.069.178-.25.404-.499.475-.784.321-.784.832-1.496 1.2-2.244.071-.107.142-.214.214-.285.249-.357.546-.749.76-1.176.142-.178.285-.357.368-.57l.724-.927c.25-.356.44-.748.654-1.14 0 .036.035.036.035.036.321.071.653.107.938.071.179.071.357-.107.582-.107.321-.035.654-.213.974-.25.404.037.725-.142 1.128-.284h.214a.195.195 0 0 1 .107.178c0 .036 0 .071-.035.107-.179.32-.357.677-.582.997-.654.962-1.414 1.853-1.996 2.85-.071.108-.142.179-.213.286l-.25.356c-.546.82-1.009 1.675-1.449 2.53a1.25 1.25 0 0 0-.142.32c-.107.5-.285.963-.321 1.461a1.03 1.03 0 0 0-.071.321c.035.285 0 .534.071.82.036.249.178.498.356.676.143.143.321.25.475.392.179.178.511.178.725.25.439.071.724.035 1.092.035a3.57 3.57 0 0 1 .654-.107c.439 0 1.092-.391 1.449-.57.368-.213.724-.498 1.164-.855 0-.071.178-.142.32-.25.107-.142.404-.32.582-.57.285-.249.582-.534.76-.783l.297-.333c0 .024-.012.06-.024.084-.071.427-.107.819-.178 1.282l.107.642.071.213c.107.214.179.321.25.392.689.535 1.164.748 1.734.855l.831-.107c.321-.035.689-.178 1.093-.427.51-.428 1.045-.82 1.591-1.568l.76-.748c.143-.142.404-.285.511-.285.071 0 .107.036.107.143v.676c.107 1.07.142 1.14.974 1.853.51.463 1.271.57 2.244.357.285-.143 1.01-.357 1.342-.57.321-.214.654-.5 1.093-.856 0-.071.143-.142.321-.25.107-.142.404-.32.51-.57.475-.427.654-.605.761-.783l.261-.297c0 .345.059.689.178 1.01 0 .07 0 .142.036.213.035.285.142.535.32.749.285.32.582.64.867.926.214.178.44.356.689.428.582.142.938.249 1.556.213 1.164-.071 2.245-.356 3.23-.926.214-.107.582-.356.76-.499.285-.178 1.236-.89 1.414-.998.107-.106.356-.285.546-.498.249-.25.546-.5.724-.749.012-.011.024-.023.036-.047 0 .107-.012.19 0 .297v.962c0 .356.178.677.214 1.033v.25a.746.746 0 0 0 .285.391c.356.392 1.164.57 1.627.713.143.036.249 0 .356 0 .107 0 1.093-.285 1.129-.32.546-.321 1.128-.57 1.591-.998.546-.463 1.164-.891 1.663-1.64.071-.07.178-.213.249-.142.036 0 .071.107.071.143v.712c0 .214.072.463.214.642l.475.534c.071.071.178.25.285.285.321.285.867.499 1.164.677.321.178.867.178 1.413-.035.25-.143.974-.357 1.271-.57.321-.214.653-.5 1.045-.856 0-.071.143-.142.321-.25.107-.142.368-.32.546-.57.25-.249.547-.534.725-.783.582-.677.902-1.14 1.271-1.817.51-.535.617-.927 1.045-1.568.059-.107.202-.427.32-.7.262-.38.511-.772.82-1.224.071-.071.439-.784.617-1.176.143-.249.25-.427.369-.605l.356.035c.214-.035.796-.213 1.045-.213.439-.072.439-.179.831-.214.475-.072.547-.214 1.01-.357h.214a.196.196 0 0 1 .107.179c0 .035 0 .07-.036.107-.178.32-.321.676-.546.997-1.164 1.71-1.77 2.672-2.174 3.35-.071.177-.475.961-.653 1.389a8.949 8.949 0 0 0-.439 1.247c-.107.214-.107.428-.143.677.036.142 0 .285 0 .427-.071.392-.036.856.178 1.426.511.64.832.926 1.271 1.104.321.143.796.178 1.2.071.106-.035.213-.035.356-.107.439 0 1.092-.391 1.449-.57.249-.142.51-.356 1.164-.855 0-.071.178-.142.32-.25.107-.142.404-.32.582-.57.155-.142.285-.26.404-.391a7.074 7.074 0 0 0-.119 1.247c-.035.178.036.356.143.534l.214.392c.071.072.106.143.178.178.214.107.439.286.689.392.213.107.902.107 1.413-.107.249-.142 1.009-.356 1.342-.57.321-.213.689-.498 1.128-.855 0-.071.143-.142.368-.25.107-.142.392-.32.511-.57.321-.249.641-.522.82-.771-.036.095-.072.178-.096.273a2.595 2.595 0 0 1-.178.57c-.071.214-.178.392-.285.606l-.32.427c-.036.214-.072.392-.072.606a.432.432 0 0 0 .25.463c.142.072.285.143.439.178.214.072.475 0 .653-.142.107-.107.214-.214.285-.356.214-.428.476-.856.725-1.283.071-.143.142-.32.249-.463.285-.428.582-.82.903-1.212.439-.57.974-1.104 1.449-1.639.249-.285.546-.534.831-.784.036-.07.143-.07.214-.035.071.035.107.071.107.178.036.214.036.392.036.748 0 .57.106 1.14.178 1.71.213.856.403 1.71.795 2.495.143.249.285.356.511.498.143.143.368.25.618.321.403.143 1.199.178 1.995-.142.285-.143 1.009-.357 1.342-.57.321-.214.653-.5 1.093-.856 0-.071.142-.142.32-.25.107-.142.404-.32.511-.57.119-.106.249-.213.368-.332a2.274 2.274 0 0 1-.131.404c-.071.214-.178.392-.285.606l-.32.427c-.036.214-.071.392-.071.606a.43.43 0 0 0 .249.463c.142.072.285.143.439.178.214.072.475 0 .654-.142.106-.107.213-.214.285-.356.213-.428.475-.856.724-1.283.071-.143.143-.32.249-.463.286-.428.582-.82.903-1.212.44-.57.974-1.104 1.449-1.639.249-.285.546-.534.831-.784.036-.07.143-.07.214-.035.071.035.107.071.107.178.036.214.036.392.036.748 0 .57.107 1.14.178 1.71.214.856.404 1.71.796 2.495.142.249.285.356.51.498.143.143.368.25.618.321.404.143 1.199.178 1.995-.142.285-.143 1.01-.357 1.342-.57.321-.214.653-.5 1.093-.856 0-.071.142-.142.32-.25.107-.142.404-.32.511-.57.285-.249.618-.534.76-.783.618-.677.974-1.14 1.307-1.817.51-.535.617-.927 1.045-1.568.107-.178.475-1.033.475-1.14 0-.356-.036-.428-.178-.534l.071.011Zm-68.789.605c.475-.997 1.045-1.496 1.627-2.03a2.51 2.51 0 0 0 .357-.286c.403-.499.938-.784 1.52-.997.249-.107.546-.179.796-.25.285-.071.653.178.653.499.035.392-.036.748-.214 1.104-.214.5-.546.927-.903 1.354-.439.428-1.627 1.568-2.316 1.889-.581.25-1.163.392-2.173.392-.036-.072.036-.357.107-.57.036-.107.071-.25.142-.392.143-.25.286-.463.404-.713Zm15.452 1.105c-.285.32-.547.641-.76.997-.476.677-1.081 1.532-1.628 2.138-.368.356-.724.677-1.128.998-.404.32-.902.498-1.342.748-.035.035-.142.035-.214.071-.071 0-.142.036-.213.071-.214.036-.796-.178-.832-.392v-.178c0-.285-.035-.605-.035-.641v-1.105c.035-.178.035-.427.106-.605 0-.57.179-1.176.511-1.889.214-.57.511-1.104.76-1.603l.143-.214c.51-.641 1.009-1.211 1.662-1.746a9.42 9.42 0 0 1 1.592-1.033 3.333 3.333 0 0 1 1.556-.25c.107 0 .249.036.368.072.617.143 1.009 1.211.938 1.425-.107.321-.214.855-.321 1.14-.285.713-.653 1.39-1.163 1.996Zm31.14-1.212.035-.071.25-.25c.582-.463 1.128-.926 1.734-1.353.582-.428 1.199-.82 1.817-1.247.249-.179.511-.285.76-.392h.214c.071.035.142.107.142.178a.448.448 0 0 1-.035.427c-.285.464-.618.891-1.046 1.248-.285.249-.546.463-.831.748a3.528 3.528 0 0 1-.867.534c-.356.143-.724.32-1.092.463-.214.107-.44.107-.725.107-.071 0-.178-.035-.285-.071-.107-.071-.143-.25-.071-.32Zm13.064 0 .036-.071.249-.25c.582-.463 1.128-.926 1.734-1.353.582-.428 1.199-.82 1.817-1.247.249-.179.511-.285.76-.392h.214c.071.035.142.107.142.178a.448.448 0 0 1-.035.427c-.285.464-.618.891-1.045 1.248-.285.249-.547.463-.832.748a3.528 3.528 0 0 1-.867.534c-.356.143-.724.32-1.092.463-.214.107-.44.107-.725.107-.071 0-.178-.035-.285-.071-.107-.071-.142-.25-.071-.32ZM272.114 12.138c.107-.178.143-.356.178-.535-.071-.249-.142-.534-.32-.676a1.393 1.393 0 0 1-.357-.286c-.285-.178-.653-.249-.938-.249a.385.385 0 0 0-.214.071c-.142.072-.213.178-.32.25a3.492 3.492 0 0 0-.796.82c-.143.142-.285.213-.404.32-.178.25-.321.392-.439.606-.178.249-.44.427-.725.57-.546.213-1.092.427-1.591.677-.44.142-.938.249-1.378.356-.582.071-1.093.25-1.591.285-.547.036-1.093.25-1.663.32h-.321c-.107-.035-.142-.106-.107-.178.214-.498.547-.926.761-1.496.035-.071.071-.143.142-.178.511-.535.974-1.105 1.306-1.746.511-.713.974-1.496 1.556-2.102.143-.107.214-.285.285-.428.107-.142.214-.356.392-.463l.938-1.033c.357-.428.761-.784 1.164-1.14.107-.107.25-.178.357-.285.795.25 1.591.427 2.351.641h.178l1.734.107c.76-.071 1.449-.107 2.138-.463.285-.107.546-.143.867-.214.107 0 .178 0 .249-.071.25-.178.511-.214.761-.392.249-.143.439-.357.617-.57l.475-.463a.504.504 0 0 0 .25-.214c.035-.25.213-.5.32-.784.036-.071.036-.143 0-.25l-.142-.213a.622.622 0 0 0-.618-.178.474.474 0 0 0-.32.035c-.072 0-.143 0-.214.071-.25.321-.618.642-.867.891-.214.214-.475.392-.76.463-.404.179-.939.321-1.342.464-.392-.072-.689.035-1.01.07-.142.036-.249.072-.404.072-.142-.036-.368-.107-.51-.071-.321 0-.654-.071-.939-.107a19.04 19.04 0 0 1-2.969-.748 1.165 1.165 0 0 0-.439-.178c-.475-.25-1.01-.428-1.556-.606-.867-.32-2.28-.89-2.684-1.105-.178-.07-.356-.178-.582-.213a3.912 3.912 0 0 1-.974-.321c-.404-.143-.796-.25-1.128-.356-.582-.143-1.271-.357-1.889-.428-.475-.142-.973-.178-1.52-.285-.178-.071-.368-.036-.582-.071a1.537 1.537 0 0 0-.582-.107c-.249.035-.51 0-.724 0-.938-.071-1.817.071-2.649.25-.403.07-.76.213-1.27.32a4.377 4.377 0 0 0-1.414.57c-.213.071-.356.107-.475.285-.285.285-.582.392-.902.606a.692.692 0 0 1-.321.178c-.214.107-.392.25-.475.427-.143.214-.321.535-.546.713-.178.143-.25.356-.321.534a8.05 8.05 0 0 0-.321 1.248 1.62 1.62 0 0 0-.107.57c.036.427-.142.712-.035 1.068.071.321.178.642.249 1.034a.666.666 0 0 1 .071.285c.143.463.321.82.618 1.211.071.071.143.143.214.32.178.286.439.535.689.785.249.25.582.498.76.748.035.071.107.071.178.107.321.178.617.392.938.499.143.07.321.142.511.178.214.035.404.035.511.035.213.036.439 0 .653-.035.107-.036.214-.072.368-.072a6.028 6.028 0 0 0 1.378-.356c.142-.071.32-.214.475-.32.403-.285.76-.642 1.009-1.07l.036-.178c0-.142-.071-.285-.071-.427 0-.214-.179-.392-.321-.499a.7.7 0 0 0-.25.036c-.249.178-.546.356-.724.605l-.321.285c-.51.321-.938.5-1.662.5-.143.035-.903-.072-.974-.143-.867-.25-1.342-.855-1.663-1.39a1.801 1.801 0 0 1-.439-.534 2.992 2.992 0 0 1-.404-1.532c0-.57.035-.855.107-1.319a.57.57 0 0 1 .142-.249c.143-.392.25-.82.511-1.211.178-.392.475-.713.831-.962.25-.107.404-.214.618-.392.107-.036.178-.072.285-.143a12.708 12.708 0 0 1 1.853-.499l1.045-.213a6.43 6.43 0 0 1 1.199-.107c.582 0 1.129.071 1.592.107.249.106.582.142.831.178.582 0 1.2.142 1.77.32.249.072.582.179.867.214.249.036.475.107.795.214.392.142.832.32 1.271.499.321.035.653.107 1.01.32.32.179 1.413.535 1.817.713.439.214.938.392 1.449.606-.036 0-.036.035-.072.035-.392.25-.546.606-.831.855-.071.036-.107.107-.214.143-.214.143-.392.285-.51.463-.25.428-.582.784-.867 1.069-.369.499-.725 1.033-1.164 1.568-.178.427-.547.89-.867 1.318-.285.428-.582.926-.903 1.39l-.107.178c-.142.142-.249.285-.404.463-.178.178-.213.32-.32.534-.321.606-.689 1.14-.974 1.746-.071.072-.107.107-.143.214a.743.743 0 0 1-.213.143c-.214.035-.392.035-.582.106-1.01.214-2.138.25-3.183.464-.511 0-.974.142-1.485.213-.439 0-.76.072-1.128.143l-1.413.427c-.475.143-.867.285-1.414.428-.107.071-.213.107-.285.178-.475.25-.974.428-1.484.606-.214.107-.392.25-.582.356-.618.428-1.271.784-1.853 1.211-.368.428-.689.784-1.093 1.14-.071.107-.178.143-.249.25-.321.57-.618 1.033-.831 1.603-.178.428-.25.927-.285 1.426-.036.534-.036 1.104-.072 1.639.072.356.179.712.25 1.068.071.178.178.357.285.535.142.142.32.32.546.463.44.463.867.89 1.449 1.105.071 0 .143.035.178.106.143.107.368.179.618.214.214.072.439.143.689.178.32 0 .724-.035 1.092-.07.285-.037.653-.037.938-.143.369-.143.761-.179 1.093-.285.071-.036.143-.036.25-.072.391-.25.867-.498 1.27-.748.285-.107.511-.285.796-.499.071-.071.143-.142.249-.213.476-.357.867-.677 1.2-1.07.142-.142.285-.284.439-.391.511-.321.939-.784 1.307-1.247.071-.072.107-.107.142-.178.285-.321.475-.713.725-.998.32-.32.51-.713.724-1.069a.817.817 0 0 1 .107-.178c.285-.535.475-.998.76-1.39.285-.534.547-1.069.796-1.496.321-.677.796-1.212 1.128-1.853.107-.178.321-.25.547-.32.071-.072.178-.072.249-.072.392-.071.796-.25 1.235-.214.143 0 .285-.07.392-.107.321-.035.582-.106.831-.213.25-.036.547-.107.832-.107.249 0 .475-.036.689-.143.285-.035.546-.178.831-.142.356 0 .689-.107.974-.107.107 0 .214.143.178.25a4.842 4.842 0 0 1-.249.64c-.107.214-.107.5-.179.713-.035.25-.213.5-.285.784a8.18 8.18 0 0 1-.142.713c.035.25.178.498.321.677a.474.474 0 0 0 .213.178c.25.071.582.107.832-.036.071-.036.107-.036.107-.071.142-.178.213-.356.285-.535.071-.391.213-.677.285-.997.106-.392.178-.713.439-1.033a.952.952 0 0 0 .107-.428c.142-.606.475-1.211.938-1.71a1.54 1.54 0 0 1 .25-.214c.142-.071.285-.143.403-.25.321-.213.689-.391 1.045-.605.654-.356 1.046-.855 1.271-1.532h.012Zm-14.822 5.487c-.285.605-.582 1.14-.902 1.781-.392.855-.939 1.675-1.556 2.459-.107.142-.25.25-.285.427-.071.178-.143.357-.285.5-.285.427-.618.819-1.045 1.175-.475.32-.867.677-1.235 1.069-.321.392-.761.677-1.2 1.033-.938.641-1.924.962-3.076 1.069-.439 0-.796 0-1.164-.107-.321-.036-.653-.214-.974-.32-.107-.036-.142-.072-.214-.108-.106-.142-.178-.249-.249-.32-.618-.642-.511-.606-.689-1.532-.035-.036 0-.072 0-.107.036-.535.071-1.033.214-1.603.107-.357.285-.713.546-1.034.178-.213.368-.427.582-.641.071-.107.214-.214.368-.428.179-.107.392-.25.582-.427.143-.178.357-.32.582-.392.25-.178.582-.285.796-.499.321-.25.689-.356 1.01-.534.439-.143.867-.464 1.199-.713.036-.036.071-.036.107-.107.618-.142 1.271-.392 1.853-.606.617-.178 1.342-.32 1.959-.285.547-.178 1.081-.107 1.592-.249.214-.036.404-.071.582-.036.32-.07.689-.07.974-.142.106 0 .213.142.213.285-.071.178-.142.25-.249.392h-.036ZM326.14 8.789c.036.107.475.107.582.178.25 0 .475 0 .653-.178.107 0 .321-.285.321-.321.511-.499.321-1.318-.071-1.995-.178-.321-.725-.428-1.01-.285-.653.142-.902.498-1.08 1.069-.036.142-.036.285-.036.356 0 .534.107.82.653 1.176h-.012ZM355.986 15.843c-.285-.071-.511-.036-.653.143l-.321.498a29.512 29.512 0 0 0-1.592 2.138c-.142.214-.439.535-1.342 1.425-.475.392-1.009.855-1.448 1.176-.107.072-.214.178-.369.285-.582.428-1.199.855-1.888 1.14-.036.036-.071.036-.107 0a.27.27 0 0 1-.071-.178 6.444 6.444 0 0 1 .511-1.532c.285-.605.546-1.211.76-1.817.071-.356.213-.677.392-.962.368-.606.688-1.211 1.128-1.746.51-.57.902-1.318 1.128-1.746.143-.285.249-.57.44-.82.285-.391.368-.854.368-1.317 0-.072-.036-.143-.072-.214-.106-.285-.249-.463-.546-.57a2.002 2.002 0 0 0-.439-.178c-.107.035-.214.07-.285.142-.214.25-.392.499-.582.748-.036.072-.25.143-.285.107-.321-.178-.618-.356-.867-.605-.143-.072-.25-.214-.392-.25-.547-.214-1.093-.499-1.699-.32-.142 0-.285 0-.475-.036-.249 0-.546.036-.795.107a.852.852 0 0 0-.321.071c-.618.356-1.271.606-1.734 1.176-.214.32-.511.57-.796.82-.214.213-.404.391-.546.64-.392.57-.784 1.165-1.152 1.77-.024.012-.048.024-.071.048-.143.213-.285.498-.511.748-.214.214-.285.534-.511.784-.582.784-.938 1.354-1.662 2.137-.072.072-.357.428-.475.535a4.59 4.59 0 0 1-.725.712c-.107.143-.285.25-.392.392-.404.392-.404.428-.974.784-.285.143-.546.25-.795.357a1.9 1.9 0 0 1-.44.142l-.249-.036c-.072 0-.25-.142-.285-.213-.036-.25-.178-.535-.107-.784.071-.356.178-.748.392-1.069.249-.463.546-.89.76-1.354.439-.677.831-1.39 1.199-2.066.321-.535.76-1.283 1.045-1.817.214-.428.392-.891.475-1.354.072-.286.107-.535.036-.82-.035-.32-.107-.606-.356-.82-.178-.178-.321-.356-.475-.534l-.321-.107c-.867-.213-1.591-.071-2.423.143a.781.781 0 0 0-.285.178c-.76.428-1.556 1.14-2.316 1.853-.178.142-.831.641-.974.82-.071.07-.368.32-.617.498-.143.107-.071-.143-.036-.214.143-.25.44-.89.582-1.176.107-.178.404-.748.511-.962.107-.213-.036-.783-.214-.962-.035-.035-.071-.07-.107-.07-.249-.143-.546-.286-.867-.286-.142.071-.285.143-.368.285-.249.606-.546 1.176-1.009 2.102a24.035 24.035 0 0 1-.939 1.924c-.035.06-.059.119-.095.178-.118 0-.308.012-.403.143-.143.214-.321.499-.582.748-.214.178-.25.499-.547.748-.617.784-1.009 1.319-1.781 2.102-.107.072-.357.428-.475.535-.25.25-.475.499-.76.712-.107.143-.285.25-.392.392-.404.392-.796.677-1.378 1.034-.392.142-.724.178-.867.071-.036-.071-.107-.143-.107-.214-.035-.178-.071-.356-.035-.57.035-.427.249-.855.285-1.318 0-.107.035-.178.071-.25.071-.178.107-.356.214-.534.142-.356.285-.677.475-1.033.142-.357.285-.713.546-1.034.071-.106.143-.249.214-.391.32-.784.76-1.532 1.199-2.245.392-.641 1.01-1.924 1.271-2.601l-.107-.356c-.035-.178-.142-.25-.32-.285-.036 0-.072-.036-.107-.036-.369-.036-.689.071-.903.392-.214.285-.439.57-.582.855-.249.57-.867 1.746-1.235 2.245-.143.273-.297.546-.451.807a.462.462 0 0 0-.274.155c-.142.213-.285.498-.51.748-.214.214-.285.534-.511.784-.582.784-.938 1.354-1.663 2.137-.071.072-.356.428-.475.535-.213.25-.439.499-.724.712-.107.143-.285.25-.392.392-.404.392-.404.428-.974.784-.285.143-.546.25-.796.357a1.893 1.893 0 0 1-.439.142l-.25-.036c-.071 0-.249-.142-.285-.213-.035-.25-.178-.535-.106-.784.071-.356.178-.748.391-1.069.25-.463.547-.89.761-1.354.439-.677.831-1.39 1.199-2.066.321-.535.76-1.283 1.045-1.817.214-.428.404-.891.475-1.354.072-.286.107-.535.036-.82-.036-.32-.107-.606-.356-.82-.179-.178-.321-.356-.475-.534l-.321-.107c-.867-.213-1.592-.071-2.423.143a.773.773 0 0 0-.285.178c-.76.428-1.556 1.14-2.316 1.853-.178.142-.831.641-.974.82-.071.07-.368.32-.617.498-.143.107-.072-.143-.036-.214.143-.25.44-.89.582-1.176.107-.178.404-.748.511-.962.107-.213-.036-.783-.214-.962-.036-.035-.071-.07-.107-.07-.249-.143-.546-.286-.867-.286-.142.071-.285.143-.368.285-.25.606-.546 1.176-1.01 2.102a24.033 24.033 0 0 1-.938 1.924c-.012.024-.024.048-.047.083a.477.477 0 0 0-.357.167c-.142.178-.285.427-.51.677-.178.178-.25.498-.475.712-.547.713-.903 1.247-1.592 1.96-.071.071-.32.392-.439.499-.214.213-.44.463-.689.641-.107.142-.25.25-.368.392-.404.356-1.485.962-2.031 1.283-.107.035-.511.249-.618.285-.142.035-.32.035-.475.107-.285.142-.582.142-.902.142a3.858 3.858 0 0 1-1.556-.392c-.143-.071-.25-.214-.321-.356-.321-.677-.404-.998-.321-1.746.036-.036.036-.214.036-.25.249 0 1.128-.07 1.449-.106l1.52-.357c.974-.356 1.592-.748 2.138-1.247.142-.142.368-.285.546-.427a.748.748 0 0 0 .178-.107c.25-.356.582-.641.796-.998l.178-.32c.072-.107.368-.464.44-.606.071-.178.249-.356.32-.534l.214-.535c.107-.32.214-.606.25-.926 0-.25-.036-.5-.072-.713a1.234 1.234 0 0 0-.51-.89c-.214-.214-.475-.393-.725-.57-.32-.179-.653-.286-1.009-.214l-.939.178c-.106 0-.213.035-.32.07-.653.286-1.307.5-1.889.927a4.21 4.21 0 0 0-1.484 1.283c-.321.392-.653.784-.938 1.176l-.179.32a1.252 1.252 0 0 1-.142.321l-.143.214a.432.432 0 0 0-.142.095c-.143.214-.285.499-.511.748-.214.214-.285.534-.51.784-.582.784-.939 1.354-1.663 2.138-.071.07-.368.427-.475.534a6.487 6.487 0 0 1-.725.713c-.107.142-.285.25-.404.392-.403.391-.403.427-.973.783-.25.179-.44.286-.796.428-.143.071-.285.036-.44.071L290 22.53c-.071 0-.249-.143-.285-.214-.178-.285-.249-.677-.178-.926-.036-.392.214-1.354.475-1.71.178-.321.689-1.39 1.093-2.174a39.738 39.738 0 0 0 1.342-2.031c.107-.107.178-.25.285-.356.582-.891.902-1.532 1.116-2.387.036-.143.036-.321 0-.464-.107-.392-.321-.605-.689-.712-.214-.071-.392-.214-.689-.25l-.902.107c-.178 0-.368.036-.547.107-.439.214-.106.107-.582.25-.475.142-.617.249-1.092.392-.285.07-.44.035-.321-.072.107-.392.143-.427.25-.784.035-.178 0-.498 0-.677 0-.32-.036-.427-.214-.89a1.034 1.034 0 0 0-.321-.428c-.035-.142-.249-.214-.404-.285-.107-.107-.213-.142-.403-.142h-.036c-.178 0-.653.213-.831.391-.404.321-.44.464-.654.856-.249.392-.403 1.46-.285 2.03l.143.5s.071.142.32.463c-.071.178-.178.356-.249.534-.142.285-.285.641-.475.962-.178.534-.618 1.176-.867 1.71l-.76 1.283a.72.72 0 0 0-.048.415c-.225.25-.403.559-.677.76-.106.143-.285.25-.403.392-.392.392-.796.642-1.378.998-.214.178-.475.178-.76.214-.546.035-.725-.107-.796-.143-.142-.107-.178-.285-.142-.392.249-.427.403-.89.653-1.282a6.24 6.24 0 0 0 .582-1.319c.178-.463.285-.926.475-1.354.036-.106.071-.249.071-.356v-.784c0-.213-.035-.427-.107-.64l-.214-.5c-.106-.178-.071-.356-.071-.534.036-.25-.035-.428-.214-.606-.249-.32-.581-.57-.867-.89-.368-.107-.653-.25-.938-.286-.32-.07-.689-.035-1.009-.035-.547.035-1.045.213-1.52.392a8.464 8.464 0 0 0-.582.32c-.404.392-.867.748-1.307 1.07a1.403 1.403 0 0 0-.356.284 7.982 7.982 0 0 0-1.413 1.853c-.179.32-.357.713-.582 1.033-.357.463-.547.998-.76 1.532l-.321 1.354c-.107.356-.036.677-.071.998-.036.178-.036.285-.036.427-.071.784.036 1.568.404 2.28.071.108.107.179.142.286.036.071.072.142.143.178.285.32.582.57.938.784a.575.575 0 0 0 .321.107c.107.035.285.035.439.035 1.378 0 1.556 0 2.577-.57.072-.071.143-.071.214-.107a6.73 6.73 0 0 0 1.164-.89c.285-.428.689-.749 1.01-1.14.071-.072.142-.072.213-.107.44.178.796.427 1.378.534.439 0 1.009-.036 1.271-.143.285-.142.867-.356 1.199-.57.689-.463.618-.427 1.164-.89.511-.428 1.128-1.283 1.413-1.568.511-.677.796-1.14 1.01-1.817.036-.107.059-.19.095-.273.214-.31.416-.642.677-1.01.071-.071.439-.784.618-1.176.142-.249.249-.427.368-.605l.356.035c.214-.035.796-.213 1.045-.213.44-.072.44-.179.831-.214.476-.072.547-.214 1.01-.357h.214a.196.196 0 0 1 .107.179c0 .035 0 .07-.036.107-.178.32-.321.676-.546.997-1.164 1.71-1.77 2.672-2.174 3.35-.071.177-.475.961-.653 1.389a8.95 8.95 0 0 0-.439 1.247c-.107.214-.107.427-.143.677.036.142 0 .285 0 .427-.071.392-.035.856.178 1.426.511.64.832.926 1.271 1.104.321.143.796.178 1.2.071.106-.035.213-.035.356-.107.439 0 1.093-.391 1.449-.57.249-.142.511-.356 1.164-.855 0-.071.178-.142.32-.25.107-.142.404-.32.582-.57.369-.32.618-.605.76-.783.155-.166.274-.297.392-.44-.023.392.048.784.179 1.152 0 .072 0 .143.035.214.036.285.143.535.321.748.285.321.582.642.867.927.214.178.439.356.689.427.582.143.938.25 1.555.214 1.164-.071 2.245-.356 3.231-.926.214-.107.582-.356.76-.499.285-.178 1.235-.89 1.413-.998.048-.047.119-.107.19-.166-.225.44-.522.974-.784 1.307-.142.142-.142.356-.142.534a.225.225 0 0 0 0 .214c.071.285.285.57.546.57.44 0 .725-.107.938-.214.072-.071.143-.142.25-.214.356-.285.321-.605.582-.997.32-.535.902-1.532 1.306-2.031.036-.072.25-.428.689-1.034.285-.391.546-.748.796-1.033.142-.213 1.271-1.46 1.449-1.639l.974-.89c.142-.107 1.128-.82 1.235-.927l1.698-1.282c.321-.214.653-.428.974-.606.178-.143.546-.143.796-.107.142 0 .285.178.249.32 0 .214-.036.393-.107.57a7.49 7.49 0 0 1-.689 1.426l-.867 1.354c-.142.32-.285.605-.51.89-.285.392-.582.784-.796 1.248a2.282 2.282 0 0 1-.321.57c-.213.213-.32.534-.439.784-.107.213-.107.427-.143.676.036.143-.035.286-.035.428-.107.463-.107.926.035 1.354.321.499.689.926 1.236 1.176a3.6 3.6 0 0 0 1.377-.036c.107-.036.214-.036.368-.036.44 0 1.081-.391 1.449-.57.368-.213.725-.498 1.164-.855 0-.071.178-.142.321-.25.107-.142.392-.32.582-.57.142-.118.273-.249.404-.367a6.728 6.728 0 0 0-.107 1.223c-.036.178.035.356.142.534l.214.392c.071.072.107.143.178.178.214.107.44.285.689.392.214.107.903.107 1.413-.107.25-.142 1.01-.356 1.342-.57.321-.213.689-.498 1.129-.855 0-.071.142-.142.368-.25.107-.142.392-.32.51-.57.06-.047.107-.082.155-.13-.226.451-.523.974-.784 1.307-.143.142-.143.356-.143.534a.23.23 0 0 0 0 .214c.072.285.286.57.547.57.439 0 .724-.107.938-.214.071-.071.143-.142.249-.214.357-.285.321-.605.582-.997.321-.535.903-1.532 1.307-2.031.035-.072.249-.428.689-1.034.285-.391.546-.748.795-1.033.143-.213 1.271-1.46 1.449-1.639l.974-.89c.143-.107 1.128-.82 1.235-.927l1.699-1.282c.32-.214.653-.428.974-.606.178-.143.546-.143.795-.107.143 0 .285.178.25.32 0 .214-.036.393-.107.57a7.49 7.49 0 0 1-.689 1.426l-.867 1.354c-.143.32-.285.605-.511.89-.285.392-.582.784-.795 1.248a2.347 2.347 0 0 1-.321.57c-.214.213-.321.534-.44.784-.106.213-.106.427-.142.676.036.143-.036.286-.036.428-.107.463-.107.926.036 1.354.321.499.689.926 1.235 1.176.44.071.903.071 1.378-.036.107-.036.214-.036.368-.036.439 0 1.093-.391 1.449-.57.368-.213.724-.498 1.164-.855 0-.071.178-.142.32-.25.107-.142.392-.32.582-.57.285-.249.582-.534.76-.783a.597.597 0 0 1 .084-.095c0 .273 0 .534.023.807.214.57.357 1.176.867 1.675.285.214.654.32 1.01.428.404.107.76.178 1.164 0l.582-.107c.51-.143 1.045-.32 1.449-.713.285-.214.582-.392.902-.534l.071.035a.343.343 0 0 1 .036.321c-.142.356-.321.713-.475 1.069-.142.32-.356.57-.653.784-.285.213-.618.392-.867.57-.404.285-.796.534-1.2.748-.795.428-1.591.89-2.28 1.46-.178.143-.321.322-.546.428-.547.321-.939.784-1.378 1.247l-1.164 1.283c-.439.499-.796 1.033-.938 1.71-.107.5-.143.998.071 1.461 0 .356.178.57.44.784.107.142.249.285.439.392a.712.712 0 0 0 .511.214 9.845 9.845 0 0 0 1.769.07c.143 0 .285-.07.44-.106.546-.178.974-.499 1.449-.784.356-.214.617-.605.867-.926.107-.107.178-.25.249-.392.546-.784 1.045-1.603 1.592-2.387.368-.677.831-1.319 1.092-2.067.285-.463.44-.962.618-1.46.107-.214.178-.428.285-.642.071-.214.107-.463.285-.641a4.382 4.382 0 0 1 1.449-.927c.107-.07.178-.142.285-.178.582-.285 1.045-.677 1.591-.997.368-.25.725-.464 1.045-.749.285-.285.689-.498 1.01-.748.653-.499.178-.178.796-.712.071-.072.142-.143.213-.25a12.871 12.871 0 0 0 2.174-2.6c.214-.25.368-.713.546-.998.071-.143.285-.428.285-.606 0-.143.071-.32.071-.463 0-.25-.178-.5-.439-.535l-.083.012Zm-76.52-1.425c-.107.143-.214.285-.321.392-.76 1.104-.867 1.283-1.128 2.53-.178.463-.214.926-.178 1.46l.106 1.247c-.213.25-.368.428-.475.642-.368.57-.902 1.033-1.484 1.425-.107.107-.285.178-.475.25-.25.07-.475.106-.618.213-.356.178-.653.178-1.009.107-.369-.107-.582-.32-.76-.677-.036-.107-.036-.25-.072-.32-.178-.535-.249-1.07-.178-1.604l.107-.606a7.751 7.751 0 0 1 .439-1.888c.107-.285.286-.534.44-.82.439-.534.689-1.14 1.045-1.638.285-.464.796-.82 1.164-1.248a.792.792 0 0 1 .178-.106c.356-.214.618-.428.974-.57a2.108 2.108 0 0 1 1.009-.285c.214.035.476 0 .654 0a.84.84 0 0 1 .439.142c.071 0 .143.036.143.107.213.392.285.784 0 1.247Zm18.788 2.102c.475-.997 1.045-1.496 1.627-2.03.107-.072.25-.179.368-.286.392-.499.939-.784 1.521-.997.249-.107.546-.179.795-.25.285-.071.654.178.654.499.035.392-.036.748-.214 1.104-.214.5-.547.927-.903 1.354-.439.428-1.627 1.568-2.316 1.889-.582.25-1.164.392-2.173.392-.036-.072.036-.357.107-.57.035-.107.071-.25.142-.392.143-.25.285-.463.392-.713Zm46.105 10.927c-.072.178-.107.391-.214.534-.285.534-.511 1.14-.867 1.639-.071.107-.178.25-.214.392-.404.784-.938 1.425-1.449 2.102-.214.32-.51.57-.831.784-.178.107-.321.214-.475.32-.214.143-.44.214-.689.214h-.178c-.107-.035-.178-.035-.285-.035-.285-.036-.511-.072-.582-.57-.071-.357 0-.677.178-.998l.653-.82a2.47 2.47 0 0 1 .285-.356c.511-.427.974-.89 1.449-1.354.321-.32.689-.605 1.093-.855l1.888-1.176c.071-.035.143-.035.214-.035.071.035.071.142.036.213h-.012Zm1.841-7.376c-.618.641-1.342 1.212-2.067 1.71-.439.285-.938.428-1.449.5-.214.035-.439-.072-.582-.286-.249-.392-.368-.784-.32-1.283 0-.427.106-.926.249-1.425.249-.677.511-1.354.831-2.03.404-.749.832-1.461 1.342-2.138.214-.285.475-.535.689-.784.107-.107.618-.677 1.164-1.069.249-.25.76-.32 1.128-.392.25-.036.511 0 .725-.036.76 0 1.271.25 1.663.82.071.071.106.178.178.285.142.25.107.534 0 .784-.179.392-.321.784-.547 1.14a8.373 8.373 0 0 0-.51 1.033 3.585 3.585 0 0 1-.582.998 18.639 18.639 0 0 1-1.924 2.173h.012Z"/></g><defs><clipPath id="a"><path fill="#fff" d="M0 0h356.425v35H0z"/></clipPath></defs></svg>
