<svg xmlns="http://www.w3.org/2000/svg" width="357" height="36" fill="none"><g fill="#196CB9" clip-path="url(#a)"><path d="M29.741 12.638c.107-.178.143-.357.178-.535-.071-.25-.142-.534-.32-.677-.143-.07-.25-.178-.369-.285-.285-.178-.653-.25-.938-.25a.382.382 0 0 0-.214.072c-.142.071-.213.178-.32.25a3.485 3.485 0 0 0-.796.82c-.143.142-.285.213-.404.32-.178.25-.32.392-.44.605-.177.25-.439.428-.724.57-.546.214-1.092.428-1.591.678-.44.142-.939.249-1.378.356-.582.071-1.093.25-1.591.285-.547.035-1.081.25-1.663.32h-.32c-.108-.035-.143-.106-.108-.178.214-.498.547-.926.76-1.496.036-.071.072-.143.143-.178.51-.535.974-1.105 1.306-1.746.511-.713.974-1.497 1.556-2.102.143-.107.214-.285.285-.428.107-.142.214-.356.404-.463l.938-1.033c.357-.428.76-.784 1.164-1.14.107-.107.25-.179.357-.285.795.249 1.591.427 2.351.64h.178l1.734.108c.76-.071 1.45-.107 2.138-.463.285-.107.546-.143.867-.214.107 0 .178 0 .25-.071.249-.179.51-.214.76-.392.249-.143.439-.357.617-.57l.475-.464a.502.502 0 0 0 .25-.213c.035-.25.213-.5.32-.784.036-.071.036-.143 0-.25l-.142-.213a.62.62 0 0 0-.618-.179.476.476 0 0 0-.32.036c-.072 0-.143 0-.214.071-.25.321-.618.642-.867.891-.214.214-.475.392-.76.463-.404.178-.939.32-1.342.463-.404-.07-.69.036-1.01.072-.143.035-.25.07-.404.07-.142-.035-.356-.106-.51-.07-.321 0-.654-.072-.939-.107a19.047 19.047 0 0 1-2.969-.748 1.167 1.167 0 0 0-.44-.179c-.474-.249-1.009-.427-1.555-.605-.867-.32-2.28-.891-2.684-1.105-.178-.071-.357-.178-.582-.214a3.908 3.908 0 0 1-.974-.32c-.404-.143-.796-.25-1.128-.357-.582-.142-1.271-.356-1.889-.427-.475-.143-.973-.178-1.52-.285-.178-.071-.356-.036-.582-.071a1.495 1.495 0 0 0-.582-.107c-.25.035-.51 0-.724 0-.938-.072-1.817.071-2.649.25-.403.07-.76.213-1.27.32a4.368 4.368 0 0 0-1.414.57c-.214.071-.368.107-.475.285-.285.285-.582.392-.902.606a.689.689 0 0 1-.321.178c-.214.107-.404.25-.475.427-.143.214-.32.535-.546.713-.179.142-.25.356-.321.534a8.02 8.02 0 0 0-.32 1.247 1.614 1.614 0 0 0-.108.57c.036.428-.142.713-.035 1.07.07.32.178.64.25 1.033a.671.671 0 0 1 .07.285c.143.463.321.82.618 1.211.071.071.142.143.214.32.178.286.44.535.689.785.249.249.582.498.76.748.035.071.107.071.178.107.32.178.617.392.938.498.143.072.32.143.51.179.215.035.405.035.511.035.214.036.44 0 .654-.035.107-.036.213-.072.356-.072.51-.07.902-.178 1.378-.356.142-.071.32-.214.475-.32.403-.286.76-.642 1.01-1.07l.035-.178c0-.142-.072-.285-.072-.427 0-.214-.178-.392-.32-.499-.071 0-.143 0-.25.036-.249.178-.546.356-.724.605l-.32.285c-.511.321-.939.5-1.663.5-.143.035-.903-.072-.974-.143-.867-.25-1.342-.855-1.663-1.39a2.024 2.024 0 0 1-.44-.534 2.991 2.991 0 0 1-.403-1.532c0-.57.035-.856.107-1.319a.574.574 0 0 1 .142-.25c.143-.391.25-.819.51-1.21.179-.392.476-.713.832-.962.25-.107.404-.214.618-.392.107-.036.178-.072.285-.143.51-.178 1.235-.392 1.853-.499l1.045-.214a6.532 6.532 0 0 1 1.2-.106c.581 0 1.127.07 1.59.106.25.107.583.143.832.179.582 0 1.2.142 1.77.32.249.072.582.178.867.214.249.036.475.107.795.214.404.142.832.32 1.271.499.32.035.653.107 1.01.32.32.178 1.413.535 1.817.713.44.214.938.392 1.449.606-.036 0-.036.035-.072.035-.403.25-.546.606-.83.855-.072.036-.108.107-.215.143-.213.142-.404.285-.51.463-.25.428-.582.784-.867 1.069-.357.499-.725 1.033-1.164 1.568-.178.427-.547.89-.867 1.318-.285.428-.582.926-.903 1.39l-.107.178c-.142.142-.25.285-.404.463-.178.178-.213.32-.32.534-.32.606-.69 1.14-.974 1.746a.453.453 0 0 0-.143.214.746.746 0 0 1-.213.142c-.214.036-.404.036-.582.107-1.01.214-2.138.25-3.195.463-.51 0-.974.143-1.485.214-.44 0-.76.072-1.128.143l-1.413.427c-.475.143-.867.285-1.414.428-.106.071-.213.107-.285.178-.475.25-.973.428-1.484.606-.214.107-.404.25-.582.356-.618.428-1.27.784-1.853 1.211-.356.428-.689.784-1.08 1.14-.072.107-.179.143-.25.25-.32.57-.618 1.033-.831 1.603-.178.428-.25.927-.285 1.425-.036.535-.036 1.105-.072 1.64.072.356.179.712.25 1.068.071.178.178.357.285.535.142.142.32.32.546.463.44.463.867.89 1.449 1.104.071 0 .143.036.178.107.143.107.356.178.618.214.214.071.44.143.689.178.32 0 .724-.035 1.092-.071.285-.036.653-.036.938-.142.369-.143.76-.179 1.093-.286.071-.035.143-.035.25-.07.403-.25.867-.5 1.27-.75.285-.106.511-.284.796-.498.071-.071.143-.142.25-.214.475-.356.866-.677 1.199-1.069.143-.142.285-.285.44-.391.51-.321.938-.784 1.306-1.248a.624.624 0 0 0 .142-.178c.285-.32.475-.712.725-.997.32-.32.51-.713.724-1.07.036-.07.072-.142.107-.177.285-.535.475-.998.76-1.39.285-.534.547-1.069.796-1.496.32-.677.796-1.212 1.128-1.853.107-.178.32-.25.546-.32.072-.072.179-.072.25-.072.404-.071.796-.25 1.235-.214.143 0 .285-.071.404-.107a2.84 2.84 0 0 0 .831-.213c.25-.036.547-.107.832-.107.249 0 .475-.036.689-.143.285-.035.546-.178.83-.142.357 0 .69-.107.975-.107.107 0 .213.142.178.25a4.75 4.75 0 0 1-.25.64c-.107.214-.107.5-.178.713-.035.25-.213.499-.285.784a8.316 8.316 0 0 1-.142.713c.035.249.178.498.32.677a.474.474 0 0 0 .214.178c.25.07.582.107.832-.036.07-.036.106-.036.106-.071.143-.178.214-.357.285-.535.072-.392.214-.677.286-.997.106-.392.178-.713.439-1.034a.948.948 0 0 0 .107-.427c.142-.606.475-1.212.938-1.71.071-.072.143-.143.25-.214.142-.071.284-.143.403-.25.32-.213.69-.391 1.045-.605.654-.357 1.046-.855 1.271-1.532h.012Zm-14.822 5.487c-.285.605-.582 1.14-.902 1.781-.404.855-.939 1.675-1.556 2.459-.107.142-.25.249-.285.427-.072.178-.143.356-.285.499-.285.427-.618.82-1.046 1.176-.475.32-.866.677-1.235 1.069-.32.392-.76.677-1.2 1.033-.937.641-1.923.962-3.075 1.069-.44 0-.796 0-1.164-.107-.32-.036-.653-.214-.974-.32-.107-.036-.142-.072-.214-.108-.107-.142-.178-.25-.25-.32-.617-.642-.51-.606-.688-1.532-.036-.036 0-.072 0-.107.036-.535.071-1.034.214-1.604a3 3 0 0 1 .546-1.033c.178-.214.356-.427.582-.641.071-.107.214-.214.356-.428a3.03 3.03 0 0 0 .582-.427 1.3 1.3 0 0 1 .582-.392c.25-.178.582-.285.796-.499.32-.25.689-.356 1.01-.535.439-.142.867-.463 1.2-.712.035-.036.07-.036.106-.107.618-.142 1.27-.392 1.853-.606.617-.178 1.342-.32 1.96-.285.546-.178 1.092-.107 1.59-.25.214-.035.404-.07.583-.035.32-.071.688-.071.974-.142.107 0 .213.142.213.285-.07.178-.142.25-.25.392h-.023ZM106.546 16.308h-.249c-.178 0-.368.07-.44.178-.142.213-.285.499-.51.748-.214.214-.285.534-.511.784-.582.784-.938 1.354-1.663 2.138-.071.07-.356.427-.475.534-.32.356-.511.534-.724.713-.107.142-.285.249-.404.392-.404.391-.404.427-.974.783a3.305 3.305 0 0 1-.796.428c-.142.071-.285.036-.44.071l-.248-.035c-.072 0-.25-.143-.286-.214-.178-.285-.249-.677-.178-.927-.035-.392.214-1.354.475-1.71.178-.32.69-1.39 1.081-2.173.404-.535 1.128-1.675 1.342-2.031.107-.107.178-.25.285-.356.582-.891.903-1.532 1.128-2.388.036-.142.036-.32 0-.463-.106-.392-.32-.605-.688-.712-.214-.072-.404-.214-.689-.25l-.903.107c-.178 0-.356.036-.546.107-.44.214-.107.107-.582.25-.475.142-.618.249-1.093.391-.285.072-.44.036-.32-.07.106-.393.142-.428.249-.785.036-.178 0-.498 0-.677 0-.32-.036-.427-.214-.89a1.037 1.037 0 0 0-.32-.428c-.036-.142-.25-.214-.404-.285-.107-.107-.214-.143-.404-.143h-.036c-.178 0-.653.214-.831.392-.404.321-.44.464-.653.855-.25.392-.404 1.461-.285 2.031l.142.5s.072.142.32.462c-.07.178-.177.357-.248.535-.143.285-.285.641-.475.962-.179.534-.618 1.176-.867 1.71l-.76 1.283s-.013.06-.024.095c-.416.546-.76 1.021-1.342 1.615-.072.071-.321.392-.44.499-.214.213-.44.463-.689.641-.107.143-.25.25-.356.392-.404.356-1.485.962-2.03 1.283-.108.035-.512.249-.618.285-.143.035-.321.035-.475.107-.285.142-.582.142-.903.142a3.861 3.861 0 0 1-1.556-.392c-.142-.071-.25-.214-.32-.356-.321-.677-.404-.998-.321-1.746.035-.036.035-.214.035-.25.25 0 1.129-.07 1.45-.106l1.52-.357c.973-.356 1.59-.748 2.137-1.247.143-.142.357-.285.547-.427.07-.036.142-.071.178-.107.25-.356.582-.641.795-.998l.179-.32c.07-.107.356-.463.439-.606.071-.178.25-.356.32-.534l.215-.535c.106-.32.213-.606.249-.926 0-.25-.036-.5-.071-.713a1.237 1.237 0 0 0-.511-.89c-.214-.214-.475-.393-.725-.57-.32-.179-.653-.286-1.009-.214l-.938.178c-.107 0-.214.035-.321.071-.653.285-1.306.499-1.888.926-.618.321-1.081.748-1.485 1.283-.32.392-.653.784-.938 1.176l-.178.32c-.036.107-.072.214-.143.321-.047.071-.095.155-.142.238-.048.023-.095.047-.13.083-.144.213-.286.499-.512.748-.213.214-.285.534-.51.784-.582.784-.939 1.354-1.663 2.138-.071.07-.368.427-.475.534a4.58 4.58 0 0 1-.725.713c-.106.142-.285.249-.403.392-.404.391-.404.427-.974.783-.285.143-.546.25-.796.357a1.902 1.902 0 0 1-.44.142l-.249-.035c-.071 0-.25-.143-.285-.214-.035-.25-.178-.535-.107-.784.072-.356.178-.748.404-1.069.25-.463.546-.89.76-1.354.44-.677.831-1.39 1.2-2.066.32-.535.76-1.283 1.045-1.817.214-.428.404-.891.475-1.354.071-.285.107-.535.035-.82-.035-.32-.106-.606-.368-.82-.178-.178-.32-.356-.475-.534l-.32-.107c-.867-.213-1.592-.07-2.423.143a.776.776 0 0 0-.285.178c-.76.428-1.556 1.14-2.316 1.853-.178.142-.832.641-.974.82-.071.07-.356.32-.618.498-.142.107-.07-.143-.035-.214.142-.25.44-.89.582-1.175.107-.179.404-.749.51-.963.107-.213-.035-.783-.213-.962-.036-.035-.072-.07-.107-.07-.25-.143-.546-.286-.867-.286-.143.071-.285.143-.356.285-.25.606-.547 1.176-1.01 2.102a24.153 24.153 0 0 1-.938 1.924c-.012.036-.036.072-.048.095-.214-.023-.392 0-.51.155l-.321.499a29.388 29.388 0 0 0-1.592 2.137c-.142.214-.439.535-1.342 1.425-.475.392-1.01.856-1.449 1.176-.106.072-.213.178-.356.285-.582.428-1.2.855-1.888 1.14-.036.036-.071.036-.107 0a.272.272 0 0 1-.071-.178 6.454 6.454 0 0 1 .51-1.532c.285-.605.547-1.211.76-1.817a2.67 2.67 0 0 1 .404-.962c.357-.606.69-1.211 1.129-1.746.51-.57.902-1.318 1.128-1.745.142-.286.25-.57.44-.82.284-.392.355-.855.355-1.318 0-.072-.035-.143-.07-.214-.108-.285-.25-.463-.547-.57-.143-.071-.285-.143-.44-.178-.106.035-.213.071-.285.142-.213.25-.403.499-.581.748-.036.072-.25.143-.286.107-.32-.178-.617-.356-.867-.605-.142-.072-.249-.214-.403-.25-.547-.214-1.093-.499-1.699-.32-.142 0-.285 0-.475-.036-.25 0-.546.036-.795.107a.85.85 0 0 0-.321.071c-.618.356-1.27.606-1.734 1.176-.214.32-.51.57-.796.82-.214.213-.404.391-.546.64-.51.749-1.045 1.497-1.485 2.317-.07.106-.142.213-.178.32-.119.309-.261.606-.392.915-.071.107-.142.202-.166.261-.25.25-.44.606-.724.82-.107.142-.285.249-.404.391-.404.392-.796.642-1.378.998-.214.178-.475.178-.76.214-.546.035-.724-.107-.796-.143-.142-.107-.178-.285-.142-.392.25-.427.404-.89.653-1.282.25-.428.44-.855.582-1.319.178-.463.285-.926.475-1.354.036-.106.071-.249.071-.356v-.784c0-.213-.035-.427-.107-.641l-.213-.499c-.107-.178-.072-.356-.072-.534.036-.25-.035-.428-.214-.606-.249-.32-.581-.57-.867-.89-.356-.108-.653-.25-.938-.286-.32-.071-.689-.035-1.01-.035-.545.035-1.044.213-1.52.392a8.604 8.604 0 0 0-.581.32 12.21 12.21 0 0 1-1.307 1.07c-.142.07-.25.177-.368.284a7.973 7.973 0 0 0-1.413 1.853c-.107.19-.214.404-.333.618h-.071c-.036-.036-.214 0-.25 0-.106 0-.32.035-.439.178-.142.213-.285.498-.51.748-.214.214-.286.534-.511.784-.582.784-.938 1.354-1.663 2.137-.071.072-.368.428-.475.535-.214.25-.44.499-.724.712-.107.143-.285.25-.404.392-.404.392-.404.428-.974.784-.285.143-.547.25-.796.357a1.907 1.907 0 0 1-.44.142l-.32.036c-.142 0-.214 0-.404-.107-.142-.178-.214-.392-.178-.57.036-.748.214-1.461.582-2.102l.107-.214c.356-.642.76-1.212 1.128-1.853.107-.142.178-.285.285-.392.285-.392.51-.855.796-1.282.285-.392.653-.784.902-1.212.107-.107.179-.25.286-.356.581-.855.902-1.497 1.128-2.387.035-.143.035-.321 0-.463-.107-.357-.285-.606-.689-.713-.214-.071-.404-.214-.689-.25l-.902.107c-.179 0-.321.036-.475.107-.357.214-.725.178-1.093.32-.831.322-1.2.464-1.378.464-.107-.035-.142-.107-.107-.178l.44-1.176c.071-.178.107-.356.142-.57.036-.392.036-.748-.071-1.14a.775.775 0 0 0-.178-.285 1.01 1.01 0 0 0-.32-.356c-.108-.107-.25-.143-.405-.143-.142-.036-.249-.036-.368-.036-.25 0-.475.072-.653.214-.51.357-.831.82-1.01 1.39-.213.677-.178 1.354-.106 2.03 0 .036.035.072.035.108.036.07.072.178.107.213.143.143.25.285.356.428-.107.178-.213.32-.285.499-.249.392-.546.712-.724 1.069-.036.107-.071.213-.178.285-.32.285-.475.605-.725.962-.178.392-.475.748-.724 1.14-.356.534-.725 1.104-1.128 1.639l-.107.213c-.214.642-.654 1.212-.903 1.853a3.865 3.865 0 0 0-.285.677c-.036.107-.036.178-.107.285-.142.32-.25.713-.356 1.105-.107.427-.071.926-.214 1.354-.036.07 0 .178 0 .25 0 .498.178.961.475 1.353.143.178.32.392.547.499.403.25.617.25.866.142a.776.776 0 0 1 .179-.285.422.422 0 0 0 .035-.356c-.107-.214-.142-.428-.285-.641-.107-.143-.107-.357-.178-.535 0-.285.036-.534.071-.82.072-.57.321-1.068.475-1.638.107-.357.25-.748.475-1.07.179-.248.404-.498.476-.783.32-.784.83-1.496 1.199-2.245.071-.106.142-.213.214-.285.25-.356.546-.748.76-1.175.142-.179.285-.357.368-.57l.725-.927c.249-.356.439-.748.653-1.14 0 .036.035.036.035.036.321.07.654.107.939.07.178.072.356-.106.581-.106.321-.036.654-.214.974-.25.404.036.725-.142 1.129-.284h.213a.196.196 0 0 1 .107.178c0 .035 0 .071-.035.107-.178.32-.357.677-.582.997-.653.962-1.413 1.853-1.995 2.85-.072.108-.143.179-.214.286l-.25.356c-.546.82-1.01 1.675-1.449 2.53-.07.107-.106.213-.142.32-.107.5-.285.962-.32 1.461-.036.107-.072.214-.072.32.036.286 0 .535.071.82.036.25.178.499.357.677.142.143.32.25.475.392.178.178.51.178.724.25.44.07.725.035 1.093.035.107-.035.51-.107.653-.107.44 0 1.093-.392 1.449-.57.368-.214.724-.499 1.164-.855 0-.071.178-.142.32-.25.107-.142.404-.32.582-.57.285-.249.582-.534.76-.783.464-.51.784-.891 1.07-1.342v.487c-.036.178-.036.285-.036.427-.072.784.035 1.568.403 2.28.072.107.107.179.143.285.036.072.071.143.142.179.285.32.582.57.939.784a.574.574 0 0 0 .32.106c.107.036.285.036.44.036 1.378 0 1.556 0 2.577-.57.071-.071.143-.071.214-.107a6.74 6.74 0 0 0 1.164-.89c.285-.428.688-.749 1.01-1.14.07-.072.142-.072.213-.108.44.178.796.428 1.378.535.44 0 1.01-.036 1.27-.143.286-.142.867-.356 1.2-.57.487-.332.594-.404.808-.594a6.27 6.27 0 0 0 0 1.057c.213.57.368 1.176.867 1.675.285.214.653.32 1.01.427.403.107.76.179 1.163 0l.582-.106c.51-.143 1.045-.321 1.449-.713.285-.214.582-.392.902-.534l.072.035a.346.346 0 0 1 .035.32c-.142.357-.32.713-.475 1.07-.142.32-.356.57-.653.784-.297.213-.617.392-.867.57-.404.285-.796.534-1.2.748-.795.427-1.59.89-2.28 1.46-.178.143-.32.321-.546.428-.546.32-.938.784-1.378 1.247l-1.164 1.283c-.44.499-.795 1.033-.938 1.71-.107.499-.142.998.071 1.46 0 .357.178.571.44.785.107.142.25.285.44.392a.71.71 0 0 0 .51.214c.582.07 1.2.106 1.77.07.142 0 .285-.07.439-.106.546-.178.974-.499 1.449-.784.368-.214.617-.606.867-.926.107-.107.178-.25.25-.392.546-.784 1.044-1.604 1.59-2.387.357-.677.832-1.319 1.093-2.067.285-.463.44-.962.618-1.46.107-.215.178-.428.285-.642.071-.214.107-.463.285-.641a4.388 4.388 0 0 1 1.449-.927c.107-.071.178-.142.285-.178.582-.285 1.045-.677 1.591-.998.357-.249.725-.463 1.046-.748.285-.285.688-.499 1.01-.748.201-.154.284-.226.344-.273-.214.416-.487.89-.725 1.2-.143.142-.143.356-.143.534a.227.227 0 0 0 0 .214c.072.285.285.57.547.57.44 0 .724-.107.938-.214.071-.071.143-.143.25-.214.368-.285.32-.606.581-.997.321-.535.903-1.533 1.307-2.031.035-.072.25-.428.689-1.034.285-.392.546-.748.795-1.033.143-.214 1.271-1.46 1.45-1.639l.973-.89c.143-.107 1.129-.82 1.235-.927l1.699-1.283c.32-.213.653-.427.974-.605.178-.143.546-.143.795-.107.143 0 .285.178.25.32 0 .214-.036.392-.107.57a7.495 7.495 0 0 1-.689 1.426l-.867 1.354c-.142.32-.285.605-.51.89-.286.392-.583.784-.796 1.247a2.308 2.308 0 0 1-.321.57c-.214.214-.32.535-.44.784-.106.214-.106.428-.142.677.036.143-.036.285-.036.428-.107.463-.107.926.036 1.354.32.498.689.926 1.235 1.175.44.072.903.072 1.378-.035.107-.036.214-.036.356-.036.44 0 1.093-.392 1.449-.57.356-.214.724-.499 1.164-.855 0-.071.178-.142.32-.25.108-.142.404-.32.582-.57.286-.249.582-.534.76-.783.143-.155.274-.297.392-.44-.023.392.048.784.179 1.152 0 .072 0 .143.035.214.036.285.143.535.321.748.285.321.582.642.867.927.214.178.44.356.689.427.582.143.938.25 1.556.214 1.163-.071 2.244-.356 3.23-.926.214-.107.582-.357.76-.5.285-.177 1.235-.89 1.413-.997.107-.107.357-.285.547-.499.25-.249.546-.498.724-.748.582-.605.903-1.033 1.271-1.674.51-.464.618-.855 1.045-1.426.048-.083.154-.296.25-.51.273-.392.534-.808.855-1.271.07-.071.44-.784.617-1.176.143-.25.25-.427.356-.605l.369.035c.213-.035.795-.214 1.045-.214.44-.07.44-.178.831-.213.475-.072.546-.214 1.01-.357h.213a.195.195 0 0 1 .107.178c0 .036 0 .072-.035.107-.178.321-.321.677-.547.998-1.163 1.71-1.77 2.672-2.173 3.35-.071.177-.475.961-.653 1.389-.214.463-.356.997-.44 1.247-.107.213-.106.427-.142.677.035.142 0 .285 0 .427-.071.392-.036.855.178 1.425.51.642.831.927 1.27 1.105.321.142.797.178 1.2.071.107-.035.214-.035.357-.107.439 0 1.092-.392 1.449-.57.249-.142.51-.356 1.163-.855 0-.071.179-.142.321-.25.107-.142.404-.32.582-.57a7.09 7.09 0 0 0 .76-.783c.725-.784 1.01-1.212 1.342-1.817.546-.535.653-.927 1.128-1.568.179-.356.475-1.069.475-1.14.036-.285 0-.392-.178-.535-.142-.106-.285-.07-.368-.106l-.095-.012Zm-55.903-1.39a3.776 3.776 0 0 1-.32.392c-.76 1.104-.867 1.283-1.128 2.53-.178.463-.214.926-.178 1.46l.106 1.247c-.213.25-.356.428-.475.642-.368.57-.902 1.033-1.484 1.425-.107.107-.285.178-.475.25-.25.07-.475.106-.618.213-.356.178-.653.178-1.01.107-.356-.107-.581-.32-.76-.677-.035-.107-.035-.25-.07-.32-.179-.535-.25-1.07-.179-1.604l.107-.606a7.728 7.728 0 0 1 .44-1.888c.106-.285.284-.534.439-.82.44-.534.689-1.14 1.045-1.638.285-.463.796-.82 1.164-1.247.035-.036.107-.072.178-.107.368-.214.618-.428.974-.57.25-.143.617-.285 1.01-.285.213.035.474 0 .653 0a.84.84 0 0 1 .439.142c.071 0 .143.036.143.107.213.392.285.784 0 1.247Zm8.207 13.029c-.071.178-.107.392-.214.534-.285.534-.51 1.14-.867 1.639-.07.107-.178.25-.213.392-.404.784-.939 1.425-1.45 2.102-.213.32-.51.57-.83.784-.179.107-.321.214-.476.32a1.21 1.21 0 0 1-.688.214h-.179c-.107-.035-.178-.035-.285-.035-.285-.036-.51-.072-.582-.57-.07-.357 0-.677.178-.998l.654-.82c.071-.106.178-.249.285-.356.51-.427.974-.89 1.449-1.354a6.34 6.34 0 0 1 1.08-.855l1.889-1.176c.071-.035.142-.035.214-.035.07.035.07.142.035.214Zm1.841-7.376c-.617.642-1.342 1.212-2.067 1.71-.439.286-.938.428-1.448.5-.214.035-.44-.072-.582-.286a1.982 1.982 0 0 1-.321-1.282c0-.428.107-.927.25-1.426.19-.522.403-1.045.629-1.567.095-.167.166-.345.237-.523.392-.724.808-1.413 1.307-2.078.214-.285.475-.535.689-.784.107-.107.617-.677 1.163-1.069.25-.25.76-.32 1.129-.392.25-.036.51 0 .724-.036.76 0 1.271.25 1.663.82.071.071.107.178.178.285.143.25.107.534 0 .784-.178.392-.32.784-.546 1.14a6.936 6.936 0 0 0-.51 1.033c-.143.392-.37.713-.583.998a18.657 18.657 0 0 1-1.924 2.173h.012Zm24.786-3.55c.475-.998 1.045-1.497 1.627-2.032.107-.07.25-.178.357-.285.403-.498.938-.784 1.52-.997.25-.107.546-.179.796-.25.285-.071.653.178.653.5.035.391-.036.747-.214 1.104-.214.498-.546.926-.903 1.354-.44.427-1.627 1.567-2.316 1.888-.582.25-1.163.392-2.173.392-.036-.072.036-.357.107-.57.036-.107.071-.25.142-.392.143-.25.286-.463.404-.713ZM141.285 15.488l.142-.784c.036-.356.072-.641.036-.855-.036-.32 0-.641.071-1.211.036-.214.072-.357.036-.428 0-.427-.036-.89-.036-1.318-.035-.25-.035-.499-.142-.748a2.54 2.54 0 0 1-.107-.749c-.036-.32-.143-.64-.214-.962a11.484 11.484 0 0 1-.356-1.175c-.107-.392-.25-.748-.511-1.07-.249-.355-.439-.747-.831-1.032-.107-.036-.178-.107-.214-.25-.071-.142-.214-.32-.546-.534-.214-.178-.321-.392-.582-.535-.653-.427-1.307-.926-1.96-1.39a2.03 2.03 0 0 0-.404-.249l-.76-.427c-.689-.25-1.377-.606-2.137-.677-.179 0-.357-.036-.547-.107a12.01 12.01 0 0 0-1.081-.285c-.32-.143-.653-.143-.973-.143-.689-.035-1.342-.035-2.031-.07-.214 0-.321 0-.44.035-.285.035-.582.035-.867.071-.404 0-.546 0-.689.036-.403.035-.795.107-1.199.178-.143 0-.178 0-.249.035-.107.036-.25.107-.404.143-.404.107-.76.25-1.164.356-.107 0-.214.071-.321.107-.796.32-1.52.748-2.28 1.14-.214.107-.44.25-.653.463-.321.285-.796.535-1.045.927-.036.035-.107.071-.179.142-.653.428-1.092 1.07-1.627 1.675-.32.499-.724.962-1.009 1.532-.143.178-.25.356-.357.677-.106.392-.285.748-.475 1.14l-.142.499c-.036.32-.107.677-.107.962v.25c.036.463 0 .961 0 1.353.143.641.404 1.176.511 1.782.071.107.142.213.178.356.356.499.689 1.033 1.093 1.568.285.498.724.962 1.235 1.39.107.106.178.142.249.213l.214.214c.439.25.831.499 1.342.641l.475.25c.142.035.249.32.214.463-.107.25-.25.427-.321.677-.142.392-.249.605-.475.89-.214.214-.321.57-.511.82-.071.25-.178.427-.32.57-.321.32-.475.499-.547.712-.403.57-.724.962-1.128 1.354-.178.214-.404.428-.582.713a.842.842 0 0 1-.475.25c-.546-.25-1.164-.464-1.698-.784-.143-.072-.25-.143-.404-.179-.44-.07-.831-.32-1.235-.427-.321 0-.618-.036-.903-.036-.249 0-.974.143-1.092.214-.404.214-.796.356-1.2.641-.285.285-.653.464-.938.713-.036.25-.107.427-.143.641-.107.428-.035.891.214 1.283.178.285.356.534.582.784.142.178.249.32.404.356.368.214.689.463 1.128.499.178 0 .368.107.546.142.178.072.44.107.654.143.213 0 .439.036.688.036l.511-.179c.511-.07.974-.249 1.995-.677.178-.106.321-.178.44-.32.142-.178.404-.25.617-.356.107-.036.25 0 .511.07.107.072.214.143.439.357.725.535 1.307.855 1.853 1.033.143.036.285.143.475.25.178.071.321.142.547.178.403.071.795.107 1.199.178.546.107 1.01.178 1.556.178.689 0 .831 0 1.128.071.511.072 1.01.036 1.52.072.321 0 .582-.107.903-.143.214 0 .356 0 .546-.071.475-.036.939-.143 1.414-.25.178-.07.403-.106.546-.142l.867-.214c.546-.178 1.081-.32 1.556-.605.249-.143.439-.285.689-.357.249-.107.51-.32.76-.463.51-.285.902-.57 1.199-.82.689-.427 1.2-.855 2.031-1.531.214-.179.321-.321.439-.5.143-.178.321-.32.582-.534.179-.107.404-.356.618-.641.107-.178.178-.356.356-.535.357-.356.547-.855.903-1.247.142-.285.321-.534.439-.89 0-.107.072-.214.107-.285.285-.57.547-1.14.832-1.675l.213-.499c.072-.32.107-.499.179-.641.356-.713.439-1.46.688-2.21v-.213h-.059Zm-26.77 11.247c-.32.178-.76.357-1.199.499-.143.071-.321.071-.475.107-.178 0-.44.035-.582.035-.546.036-1.01-.106-1.52-.427l-.214-.214c-.071-.142-.107-.25-.178-.427-.072-.107-.036-.178.071-.285.071-.072.142-.179.249-.25.25-.214.618-.392 1.046-.499.285-.035.403-.035.546.036.689.214 1.377.499 2.244.926.072.036.107.143.143.178.036.072-.036.214-.143.321h.012Zm25.143-13.99c-.036.107-.036.213-.036.57 0 .107.036.213-.035.32-.107.178-.107.392-.072.749 0 .64-.107 1.282-.368 1.924a5.941 5.941 0 0 0-.249.855c-.25.748-.44 1.247-.725 1.96-.356.748-.653 1.282-.902 1.745-.178.392-.404.677-.654 1.033-.51.855-1.199 1.497-1.817 2.21-.071.07-.106.07-.178.142l-.249.214c-.404.285-.725.641-1.128.89-.214.143-.404.25-.725.535a.773.773 0 0 1-.285.178c-.653.32-1.271.748-1.96 1.033-.213.143-.475.25-.831.357-.582.142-1.235.249-1.817.463-.107.035-.178.071-.321.071-.475.071-.902.107-1.769.214-.072.036-.107.036-.321.036-.903-.036-1.817 0-2.684-.143-.178-.036-.356-.036-.546-.071-.178 0-.321 0-.547-.072-.249-.07-.439-.142-.653-.178-.321-.035-.653-.213-.974-.25-.724-.427-1.449-.783-1.959-1.424-.072-.072-.072-.143 0-.214.107-.178.249-.356.403-.534.357-.357.654-.784.974-1.176.143-.143.178-.178.214-.25.44-.712 1.01-1.39 1.413-2.102.214-.356.404-.712.618-1.033.214-.32.356-.677.546-.962l.143-.214a.439.439 0 0 1 .356-.178c.25 0 .511.036.689.071.404.107.76.143 1.199.107.179 0 .369.036.582.036.369-.036.796-.036 1.2-.214.142-.036.356-.036.511-.071a4.022 4.022 0 0 0 1.342-.57c.403-.178.724-.392 1.092-.606.321-.178.654-.463 1.045-.784a1.36 1.36 0 0 0 .321-.32 1.83 1.83 0 0 1 .582-.642c.214-.285.321-.392.368-.427.071-.179.214-.392.321-.57.107-.143.071-.285-.036-.428-.071-.107-.214-.214-.32-.214h-.582a.728.728 0 0 0-.511.214c-.214.214-.404.392-.582.641-.107.178-.249.32-.475.463-.178.107-.321.25-.76.677a.925.925 0 0 1-.368.285c-.25.179-.582.285-.832.464a4.035 4.035 0 0 1-1.164.463c-.51.071-1.009.107-1.555.107-.44-.072-.725-.072-1.236-.072-.142 0-.249-.285-.178-.463.036-.071.036-.142.072-.213.32-.464.617-.998.902-1.746.214-.321.321-.749.475-1.07.25-.462.44-.89.653-1.282.285-.428.476-.855.761-1.247.106-.107.142-.214.213-.356.107-.178.214-.357.404-.535.404-.498.831-.962 1.235-1.425.178-.25.404-.427 1.093-.784.071-.035.214-.07.321-.107.439-.106.902-.249 1.413-.249.107 0 .178-.036.249-.178.072-.071.143-.178.25-.392.107-.214-.072-.535-.321-.606-.036 0-.071-.035-.071-.035-.796-.107-1.449-.072-2.031.106l-.511.143c-.249.143-.475.25-.689.392-.475.285-.938.641-1.627 1.318-.035.036-.035.071-.107.178-.178.285-.403.535-.582.82-.178.25-.403.427-.617.641l-.178.285c-.214.463-.582.855-.832 1.283-.071.107-.107.214-.178.499-.107.285-.178.498-.32.712-.25.285-.404.57-.475.962 0 .071-.036.143-.072.214-.071.285-.285.499-.356.82-.071.249-.214.463-.321.677a1.81 1.81 0 0 1-.32.57c-.072.107-.143.178-.25.213l-.107.036c-.902-.214-1.52-.499-1.995-.926-.107-.143-.214-.25-.321-.285a3.98 3.98 0 0 1-.546-.57l-1.164-1.675c-.617-1.675-.475-1.603-.51-2.708 0-.57.035-.82.178-1.104.071-.464.285-.962.617-1.604.178-.356.25-.463.285-.605.107-.464.404-.784.653-1.14.286-.393.582-.784.974-1.034.285-.356.689-.712 1.235-1.104a5.843 5.843 0 0 1 1.699-1.07c.178-.07.285-.177.475-.284.285-.214.546-.357.903-.428.249-.035.546-.214.831-.25.356-.106.546-.177.724-.213.285-.071.547-.107.796-.107.404.036.796 0 1.235-.036.725-.106 1.556-.106 2.684 0 .404 0 1.2.143 1.734.357.475.107.974.32 1.449.499.25.07.404.178.618.249.404.214.795.428 1.164.641.32.178.617.392.902.642.321.249.582.57.974.748.178.178.368.356.546.57.321.285.618.641.939.962.582 1.033.938 2.173 1.164 3.385l.106.463c0 .071.072.178.036.285 0 .641.143 1.247.036 1.853h-.012ZM212.342 9.289c.036.106.475.106.582.178.249 0 .475 0 .653-.178.107 0 .321-.285.321-.321.511-.499.321-1.318-.071-1.995-.179-.321-.725-.428-1.01-.285-.653.142-.903.498-1.081 1.069-.035.142-.035.285-.035.356 0 .534.107.82.653 1.176h-.012Z"/><path d="M241.071 16.415c-.142-.107-.285-.072-.356-.107-.036-.036-.214 0-.249 0-.107 0-.321.035-.44.178-.142.213-.285.499-.511.748-.213.214-.213.534-.475.784-.546.784-.902 1.354-1.591 2.138-.071.07-.321.427-.439.534-.214.25-.44.499-.725.713-.107.142-.249.249-.368.392-.392.391-.76.676-1.342 1.033-.178.178-.44.25-.725.285-.439.107-.831 0-1.009-.214-.214-.178-.321-.392-.44-.677-.285-.962-.51-2.387-.439-3.278 0-.035.071-.107.143-.142a.957.957 0 0 1 .439-.107c.546-.036 1.081-.143 1.591-.392.285-.107.582-.214.832-.356.32-.179.689-.357 1.128-.535.036-.107.178-.25.285-.392.143-.178.285-.356.475-.499.214-.142.368-.356.546-.57.179-.25.404-.463.547-.748.107-.25.285-.463.439-.677a.852.852 0 0 0 .214-.392l.107-.463c-.107-.25.035-.463.035-.748a.5.5 0 0 0-.071-.214c-.178-.392-.439-.641-.867-.713-.142-.035-.32 0-.439-.035-.321-.107-.618-.071-.903.035-.285.072-.582.143-.867.321-.142.107-.32.143-.51.25-.143.035-.286.142-.404.249-.357.285-.76.499-1.129.784-.32.285-.724.57-1.092.82-.867.605-1.663 1.246-2.352 1.995-.32.356-.689.64-1.045.962-.071.035-.142.07-.178.035-.071-.035-.107-.107-.071-.214.285-.498.546-1.033.76-1.532a1.39 1.39 0 0 1 .404-.427 5.57 5.57 0 0 0 1.045-1.07c.249-.356.51-.64.795-.961.286-.285.582-.677.903-.998.392-.356.582-.784.938-1.176.143-.142.214-.392.321-.605.071-.143.178-.25.214-.392.32-.784.796-1.497.974-2.28-.036-.464-.214-.749-.689-.891l-.796.107a.958.958 0 0 0-.404.213 2.011 2.011 0 0 0-.285.214c-.974.962-1.888 2.067-2.494 3.35-.142.284-.249.57-.439.819-.25.534-.511 1.104-.867 1.639a.871.871 0 0 0-.214.356c-.071.25-.178.499-.321.713-.213.25-.213.57-.368.855-.107.142-.178.32-.285.499-.071.178-.142.32-.249.498-.036.06-.06.12-.095.19h-.036c-.036-.035-.214 0-.249 0-.107 0-.321.036-.44.179-.142.213-.285.498-.51.748-.214.214-.214.534-.476.784-.546.784-.902 1.354-1.591 2.137-.071.072-.321.428-.439.535-.214.25-.44.499-.725.712-.107.143-.249.25-.368.392-.392.392-.76.677-1.342 1.034-.178.178-.439.25-.725.285-.439.107-.831 0-1.009-.214-.214-.178-.321-.392-.439-.677-.286-.962-.511-2.387-.44-3.278 0-.036.071-.107.143-.142a.958.958 0 0 1 .439-.107c.546-.036 1.081-.143 1.592-.392.285-.107.581-.214.831-.357.321-.178.689-.356 1.128-.534.036-.107.178-.25.285-.392.143-.178.285-.356.475-.499.214-.142.368-.356.547-.57.178-.25.403-.463.546-.748.107-.25.285-.463.439-.677a.852.852 0 0 0 .214-.392l.107-.463c-.107-.25.036-.463.036-.748 0-.072-.036-.143-.072-.214-.178-.392-.439-.641-.867-.713-.142-.035-.32 0-.439-.035-.321-.107-.618-.072-.903.035-.285.072-.582.143-.867.321-.142.107-.32.143-.51.25-.143.035-.285.142-.404.249-.356.285-.76.499-1.128.784-.321.285-.725.57-1.093.82-.867.605-1.663 1.246-2.352 1.994-.32.357-.688.642-1.045.962-.071.036-.142.072-.178.036-.071-.036-.107-.107-.071-.214.285-.499.546-1.033.76-1.532.107-.178.249-.32.404-.427.404-.321.76-.677 1.045-1.07.249-.356.511-.64.796-.961.285-.285.582-.677.902-.998.392-.356.582-.784.938-1.176.143-.142.214-.392.321-.605.071-.143.178-.25.214-.392.321-.784.796-1.497.974-2.28-.036-.464-.214-.749-.689-.891l-.796.107a.958.958 0 0 0-.404.213c-.106.072-.213.143-.285.214-.974.962-1.888 2.067-2.494 3.35-.142.284-.249.57-.439.819-.25.534-.511 1.104-.867 1.639a.871.871 0 0 0-.214.356c-.071.25-.178.499-.321.713-.213.249-.213.57-.368.855-.107.142-.178.32-.285.498-.071.179-.142.321-.249.5-.048.094-.095.19-.131.284h-.047c-.107 0-.357 0-.475.143-.143.214-.321.499-.582.748-.214.178-.25.499-.547.748-.617.784-1.009 1.319-1.781 2.102-.107.072-.356.428-.475.535-.25.25-.475.499-.76.712-.107.143-.285.25-.392.392-.404.392-.796.677-1.378 1.034-.392.142-.724.178-.867.07-.035-.07-.107-.142-.107-.213-.035-.178-.071-.356-.035-.57.035-.427.249-.855.285-1.318a.51.51 0 0 1 .071-.25c.071-.178.107-.356.214-.534a9.89 9.89 0 0 1 .475-1.033c.142-.357.285-.713.546-1.034.071-.106.143-.249.214-.391.321-.784.76-1.533 1.199-2.245.392-.641 1.01-1.924 1.271-2.601l-.107-.356c-.035-.178-.142-.25-.32-.285-.036 0-.072-.036-.107-.036-.368-.036-.689.071-.903.392-.214.285-.439.57-.582.855-.249.57-.867 1.746-1.235 2.245-.143.273-.297.546-.451.82-.119.023-.214.07-.262.142-.142.213-.285.498-.51.748-.214.214-.285.534-.511.784-.582.784-.938 1.354-1.663 2.137-.071.072-.368.428-.475.535a6.41 6.41 0 0 1-.724.712c-.107.143-.285.25-.404.392-.404.392-.404.428-.974.784a3.302 3.302 0 0 1-.796.428c-.142.071-.285.035-.439.071l-.249-.036c-.072 0-.25-.142-.285-.213-.179-.285-.25-.677-.179-.927-.035-.392.214-1.354.475-1.71.179-.32.689-1.39 1.093-2.173a39.035 39.035 0 0 0 1.342-2.031c.107-.107.178-.25.285-.357.582-.89.903-1.531 1.117-2.387.035-.142.035-.32 0-.463-.107-.392-.321-.605-.689-.712-.214-.072-.392-.214-.689-.25l-.903.107a1.49 1.49 0 0 0-.546.107c-.439.214-.107.107-.582.25-.475.142-.618.249-1.093.391-.285.072-.439.036-.32-.071.107-.392.142-.428.249-.784.036-.178 0-.499 0-.677 0-.32-.036-.427-.214-.89a1.033 1.033 0 0 0-.32-.428c-.036-.143-.25-.214-.404-.285-.107-.107-.214-.143-.404-.143h-.036c-.178 0-.653.214-.831.392-.404.321-.439.463-.653.855-.25.392-.404 1.461-.285 2.031l.142.5s.072.142.321.462c-.071.178-.178.357-.249.535-.143.285-.285.641-.475.962-.179.534-.618 1.176-.867 1.71l-.761 1.283a.715.715 0 0 0-.059.273c-.404.594-.76 1.104-1.33 1.758-.071.07-.321.427-.439.534-.214.25-.44.499-.689.712-.107.143-.25.25-.369.392-.403.392-.76.677-1.306 1.034-.178.178-.404.25-.689.285-.617 0-.831-.178-.902-.214-.285-.214-.475-.82-.44-1.176.071-.784.036-1.211.321-1.924.142-.285.249-.57.368-.855.178-.641.439-1.247.867-1.746.214-.285.368-.605.582-.89.475-.57.903-1.14 1.342-1.746a17.755 17.755 0 0 0 1.663-2.21c.475-.64.938-1.389 1.271-2.066.51-.926.795-1.532 1.199-2.636l.214-.82c.035-.142 0-.32-.036-.463a1.984 1.984 0 0 0-.32-.606c-.036-.035-.107-.107-.179-.107a.91.91 0 0 0-.795.143c-.369.214-.867.57-1.2.997-.831.856-1.009 1.319-1.449 2.067a9.62 9.62 0 0 0-.439.855c-.582 1.104-1.129 1.746-1.627 2.922-.107.178-.214.213-.357.107-.439-.357-.902-.535-1.413-.677a2.79 2.79 0 0 0-.974-.179 5.825 5.825 0 0 0-2.031.606c-.795.356-1.52.855-2.137 1.354-.511.392-.939.784-1.307 1.283-.404.605-.784 1.2-1.188 1.77-.059.082-.118.166-.19.249-.178.178-.249.498-.475.712-.546.713-.902 1.247-1.591 1.96-.071.071-.321.392-.439.499-.214.213-.44.463-.689.641-.107.143-.25.25-.357.392-.403.356-1.484.962-2.03 1.283-.107.035-.511.25-.618.285-.143.035-.321.035-.475.107-.285.142-.582.142-.903.142a3.864 3.864 0 0 1-1.556-.392c-.142-.071-.249-.214-.32-.356-.321-.677-.404-.998-.321-1.746.036-.036.036-.214.036-.25.249 0 1.128-.07 1.449-.106l1.52-.357c.974-.356 1.591-.748 2.138-1.247.142-.142.356-.285.546-.427.071-.036.142-.071.178-.107.25-.356.582-.641.796-.998l.178-.32c.071-.107.356-.463.439-.606.072-.178.25-.356.321-.534l.214-.535c.107-.32.214-.606.249-.926 0-.25-.035-.5-.071-.713a1.238 1.238 0 0 0-.511-.89c-.213-.214-.475-.393-.724-.57-.321-.179-.653-.286-1.01-.214l-.938.178a1.04 1.04 0 0 0-.321.071c-.653.285-1.306.499-1.888.926-.617.321-1.081.748-1.484 1.283-.321.392-.654.784-.939 1.176l-.178.32c-.036.107-.071.214-.142.321a4.574 4.574 0 0 0-.155.25c-.035.023-.083.047-.095.07-.142.215-.285.5-.51.749-.214.214-.214.534-.476.784-.546.784-.902 1.354-1.591 2.138-.071.07-.321.427-.439.534a6.478 6.478 0 0 1-.725.713c-.107.142-.249.249-.368.392-.356.356-.689.605-1.342 1.033-.143.142-.404.25-.725.285-.356 0-.688-.178-.724-.392-.071-.285-.107-.499-.071-.677 0-.356 0-.463.035-.57 0-.32.072-.713.178-1.14.072-.214.107-.428.179-.677.071-.178.107-.357.213-.535.25-.463.475-.962.725-1.425.724-1.354.938-1.71 1.235-2.138.214-.32.368-.677.653-.962.178-.32.357-.57.547-.926.142-.356.178-.713.142-1.033 0-.107-.036-.214-.142-.428a.269.269 0 0 0-.25-.178c-.107 0-.249-.036-.368.036-.404.142-.724.392-.903.677-.285.427-.403.605-.475.784-.107.249-.249.498-.368.64-.178.25-.321.535-.511.785-.475.57-.724 1.14-1.199 1.745-.285.392-.546.82-.831 1.248-.285.392-.511.64-.761.855-.213.213-.403.463-.617.677-.107.142-.178.249-.285.356-.511.606-.974 1.069-1.995 2.03a7.802 7.802 0 0 1-1.414 1.034c-.107.107-.285.107-.582.071a.307.307 0 0 1-.285-.285c-.035-.32-.035-.534.036-.712.107-.428.178-.891.321-1.319.142-.427.368-.855.688-1.496.357-.641.654-1.283 1.01-1.924.321-.57.689-1.354 1.009-1.924.404-.748.725-1.425 1.129-2.209.071-.107.107-.285.142-.428.036-.07 0-.142 0-.213-.107-.214-.178-.321-.249-.392-.107-.178-.404-.285-.618-.178a.957.957 0 0 0-.404.213c-.071.072-.142.143-.285.357-.249.391-.475.82-.724 1.211-.214.392-.404.748-.653 1.14-.297.451-.606.974-.891 1.509-.036 0-.083 0-.107-.024-.035-.036-.214 0-.249 0-.107 0-.321.035-.44.178-.142.214-.285.499-.51.748-.214.214-.285.534-.511.784-.582.784-.938 1.354-1.663 2.138-.071.071-.368.427-.475.534a4.58 4.58 0 0 1-.724.713c-.107.142-.285.25-.404.392-.404.392-.404.427-.974.784-.285.142-.546.249-.796.356a1.893 1.893 0 0 1-.439.142l-.321.036c-.142 0-.214 0-.404-.107-.142-.178-.213-.392-.178-.57.036-.748.214-1.46.582-2.102l.107-.214c.356-.641.76-1.211 1.128-1.853.107-.142.178-.285.285-.392.285-.392.511-.855.796-1.282.285-.392.653-.784.903-1.212.107-.107.178-.249.285-.356.582-.855.902-1.496 1.128-2.387.036-.143.036-.32 0-.463-.107-.357-.285-.606-.689-.713-.214-.071-.404-.214-.689-.25l-.902.108a1.07 1.07 0 0 0-.475.107c-.357.213-.725.178-1.093.32-.831.32-1.199.463-1.378.463-.107-.035-.142-.107-.107-.178l.44-1.176c.071-.178.107-.356.142-.57.036-.392.036-.748-.071-1.14a.77.77 0 0 0-.178-.285 1.005 1.005 0 0 0-.321-.356c-.107-.107-.249-.143-.403-.143-.143-.035-.25-.035-.369-.035-.249 0-.475.071-.653.214-.511.356-.831.819-1.009 1.389-.214.677-.178 1.354-.107 2.03 0 .037.035.072.035.108.036.071.072.178.107.214.143.142.25.285.357.427-.107.178-.214.32-.285.499-.25.392-.547.713-.725 1.069-.036.107-.071.214-.178.285-.321.285-.475.606-.725.962-.178.392-.475.748-.724 1.14-.356.534-.724 1.104-1.128 1.639l-.107.214c-.214.641-.653 1.211-.903 1.853-.107.213-.214.427-.285.676-.035.107-.035.179-.107.286-.142.32-.249.712-.356 1.104-.107.428-.071.926-.214 1.354-.035.071 0 .178 0 .25 0 .498.178.961.475 1.353.143.178.321.392.547.5.403.248.617.248.867.142a.771.771 0 0 1 .178-.285.421.421 0 0 0 .035-.357c-.106-.213-.142-.427-.285-.641-.107-.143-.107-.356-.178-.534 0-.286.036-.535.071-.82.072-.57.321-1.069.476-1.639.106-.356.249-.748.475-1.069.178-.25.403-.499.475-.784.32-.784.831-1.496 1.199-2.244.071-.107.143-.214.214-.285.249-.357.546-.749.76-1.176.143-.178.285-.357.368-.57l.725-.927c.249-.356.439-.748.653-1.14 0 .036.036.036.036.036.32.071.653.107.938.071.178.071.356-.107.582-.107.32-.035.653-.213.974-.25.403.037.724-.142 1.128-.284h.214a.197.197 0 0 1 .107.178c0 .036 0 .071-.036.107-.178.32-.356.677-.582.997-.653.962-1.413 1.853-1.995 2.85-.072.108-.143.179-.214.286l-.25.356c-.546.82-1.009 1.675-1.448 2.53-.072.107-.107.214-.143.32-.107.5-.285.963-.321 1.461-.035.107-.071.214-.071.321.036.285 0 .534.071.82.036.249.179.498.357.676.142.143.32.25.475.392.178.178.51.178.724.25.44.071.725.035 1.093.035.107-.035.511-.107.653-.107.439 0 1.093-.391 1.449-.57.368-.213.724-.498 1.164-.855 0-.07.178-.142.321-.25.106-.142.403-.32.581-.57.286-.249.582-.534.761-.783l.296-.332c0 .023-.011.059-.023.083-.072.427-.107.82-.178 1.282l.106.642.072.213c.107.214.178.321.249.392.689.535 1.164.748 1.734.855l.831-.107c.321-.035.689-.178 1.093-.427.511-.428 1.045-.82 1.592-1.568l.76-.748c.142-.142.403-.285.51-.285.072 0 .107.036.107.143v.677c.107 1.068.143 1.14.974 1.852.511.463 1.271.57 2.245.357.285-.143 1.009-.357 1.342-.57.32-.214.653-.5 1.092-.856 0-.07.143-.142.321-.25.107-.142.404-.32.511-.57.475-.427.653-.605.76-.783l.261-.297c0 .345.06.689.178 1.01 0 .07 0 .142.036.213.036.285.142.535.321.749.285.32.582.64.867.926.213.178.439.356.688.428.582.142.939.249 1.556.213 1.164-.071 2.245-.356 3.231-.926.213-.107.582-.356.76-.499.285-.178 1.235-.89 1.413-.997.107-.107.356-.286.546-.5.25-.249.547-.498.725-.748a.146.146 0 0 0 .035-.047c0 .107-.011.19 0 .297v.962c0 .356.179.677.214 1.033v.25a.752.752 0 0 0 .285.391c.357.392 1.164.57 1.627.713.143.036.25 0 .357 0 .107 0 1.092-.285 1.128-.32.546-.321 1.128-.57 1.591-.998.547-.463 1.164-.891 1.663-1.64.071-.07.178-.213.249-.142.036 0 .072.107.072.143v.712c0 .214.071.463.214.642l.475.534c.071.071.178.25.285.285.32.285.867.499 1.163.677.321.178.867.178 1.414-.035.249-.143.974-.357 1.271-.57.32-.214.653-.5 1.045-.856 0-.07.142-.142.32-.25.107-.142.369-.32.547-.57.249-.249.546-.534.724-.783.582-.677.903-1.14 1.271-1.817.511-.535.618-.927 1.045-1.568.059-.107.202-.427.321-.7.261-.38.51-.772.819-1.224.071-.071.44-.784.618-1.176.142-.249.249-.427.368-.605l.356.035c.214-.035.796-.213 1.045-.213.44-.072.44-.179.832-.214.475-.071.546-.214 1.009-.357h.214a.197.197 0 0 1 .107.179c0 .035 0 .07-.036.107-.178.32-.32.676-.546.997-1.164 1.71-1.77 2.672-2.173 3.35-.072.177-.475.961-.654 1.389a9.083 9.083 0 0 0-.439 1.247c-.107.214-.107.428-.143.677.036.142 0 .285 0 .427-.071.392-.035.856.179 1.426.51.64.831.926 1.27 1.104.321.143.796.178 1.2.071.107-.035.214-.035.356-.107.44 0 1.093-.391 1.449-.57.249-.142.511-.356 1.164-.855 0-.07.178-.142.321-.25.107-.142.403-.32.582-.57.154-.142.285-.26.403-.391a7.076 7.076 0 0 0-.118 1.247c-.036.178.035.356.142.534l.214.392c.071.072.107.143.178.178.214.107.44.286.689.392.214.107.903.107 1.413-.107.25-.142 1.01-.356 1.342-.57.321-.213.689-.498 1.129-.855 0-.07.142-.142.368-.25.107-.142.392-.32.51-.57.321-.249.642-.522.82-.771-.036.095-.071.178-.095.273a2.705 2.705 0 0 1-.178.57c-.072.214-.178.392-.285.606l-.321.427c-.036.214-.071.392-.071.606a.43.43 0 0 0 .249.463c.143.072.285.143.44.178.213.072.475 0 .653-.142.107-.107.214-.214.285-.356.214-.428.475-.855.724-1.283.072-.143.143-.32.25-.463.285-.428.582-.82.902-1.212.44-.57.974-1.104 1.449-1.639.25-.285.547-.534.832-.784.035-.07.142-.07.213-.035.072.035.107.071.107.178.036.214.036.392.036.748 0 .57.107 1.14.178 1.71.214.856.404 1.71.796 2.495.142.249.285.356.51.498.143.143.369.25.618.321.404.143 1.2.178 1.995-.142.285-.143 1.01-.357 1.342-.57.321-.214.654-.5 1.093-.856 0-.07.142-.142.321-.25.107-.142.403-.32.51-.57.119-.106.25-.213.368-.332a2.27 2.27 0 0 1-.13.404c-.071.214-.178.392-.285.606l-.321.427c-.035.214-.071.392-.071.606a.43.43 0 0 0 .249.463c.143.072.285.143.44.178.214.072.475 0 .653-.142.107-.107.214-.214.285-.356.214-.428.475-.855.724-1.283.072-.143.143-.32.25-.463.285-.428.582-.82.902-1.212.44-.57.974-1.104 1.449-1.639.25-.285.547-.534.832-.784.035-.07.142-.07.214-.035.071.035.106.071.106.178.036.214.036.392.036.748 0 .57.107 1.14.178 1.71.214.856.404 1.71.796 2.495.142.249.285.356.511.498.142.143.368.25.617.321.404.143 1.2.178 1.995-.142.285-.143 1.01-.357 1.342-.57.321-.214.654-.5 1.093-.856 0-.07.143-.142.321-.25.107-.142.404-.32.51-.57.285-.249.618-.534.761-.783.617-.677.973-1.14 1.306-1.817.511-.535.618-.927 1.045-1.568.107-.178.475-1.033.475-1.14 0-.356-.035-.428-.178-.534l.071.012Zm-68.788.605c.475-.997 1.045-1.496 1.627-2.03a2.49 2.49 0 0 0 .356-.286c.404-.498.938-.784 1.52-.997.25-.107.547-.179.796-.25.285-.071.653.178.653.5.036.391-.035.747-.214 1.104-.213.498-.546.926-.902 1.354-.44.427-1.627 1.567-2.316 1.888-.582.25-1.164.392-2.174.392-.035-.072.036-.357.107-.57.036-.107.072-.25.143-.392.142-.25.285-.463.404-.713Zm15.451 1.105c-.285.32-.546.641-.76.997-.475.677-1.081 1.532-1.627 2.138-.368.356-.725.677-1.128.998-.404.32-.903.498-1.343.748-.035.036-.142.036-.213.071a.502.502 0 0 0-.214.071c-.214.036-.796-.178-.831-.392v-.178c0-.285-.036-.605-.036-.64v-1.105c.036-.179.036-.428.107-.606 0-.57.178-1.176.511-1.889.213-.57.51-1.104.76-1.603l.142-.214c.511-.641 1.01-1.211 1.663-1.746a9.372 9.372 0 0 1 1.591-1.033 3.333 3.333 0 0 1 1.556-.25c.107 0 .25.036.368.072.618.143 1.01 1.211.939 1.425-.107.321-.214.855-.321 1.14-.285.713-.653 1.39-1.164 1.996Zm31.14-1.212.036-.071.249-.25c.582-.462 1.128-.926 1.734-1.353.582-.428 1.2-.82 1.817-1.247.25-.179.511-.285.76-.392h.214c.071.035.143.107.143.178a.451.451 0 0 1-.036.428c-.285.463-.618.89-1.045 1.247-.285.249-.546.463-.832.748a3.544 3.544 0 0 1-.866.534c-.357.143-.725.32-1.093.463-.214.107-.44.107-.725.107-.071 0-.178-.035-.285-.071-.107-.071-.142-.25-.071-.32Zm13.064 0 .036-.071.249-.25c.582-.462 1.129-.926 1.734-1.353.582-.428 1.2-.82 1.817-1.247.25-.179.511-.285.76-.392h.214c.071.035.143.107.143.178a.451.451 0 0 1-.036.428c-.285.463-.617.89-1.045 1.247-.285.249-.546.463-.831.748a3.57 3.57 0 0 1-.867.534c-.357.143-.725.32-1.093.463-.214.107-.439.107-.724.107-.072 0-.179-.035-.286-.071-.106-.071-.142-.25-.071-.32ZM272.401 12.638c.107-.178.143-.357.178-.535-.071-.25-.142-.534-.32-.677-.143-.07-.25-.178-.357-.285-.285-.178-.653-.25-.938-.25a.385.385 0 0 0-.214.072c-.142.071-.213.178-.32.25a3.492 3.492 0 0 0-.796.82c-.142.142-.285.213-.404.32-.178.25-.32.392-.439.605-.178.25-.44.428-.725.57-.546.214-1.092.428-1.591.678-.44.142-.938.249-1.378.356-.582.071-1.092.25-1.591.285-.547.035-1.093.25-1.663.32h-.321c-.106-.035-.142-.106-.106-.178.213-.498.546-.926.76-1.496.035-.071.071-.143.142-.178.511-.535.974-1.105 1.307-1.746.51-.713.973-1.497 1.555-2.102.143-.107.214-.285.285-.428.107-.142.214-.356.392-.463l.939-1.033c.356-.428.76-.784 1.163-1.14.107-.107.25-.179.357-.285.795.249 1.591.427 2.351.64h.178l1.734.108c.761-.071 1.449-.107 2.138-.463.285-.107.547-.143.867-.214.107 0 .178 0 .25-.071.249-.179.51-.214.76-.392.249-.143.439-.357.617-.57l.475-.464a.504.504 0 0 0 .25-.213c.035-.25.213-.5.32-.784.036-.071.036-.143 0-.25l-.142-.213a.621.621 0 0 0-.618-.179.474.474 0 0 0-.32.036c-.072 0-.143 0-.214.071-.25.321-.618.642-.867.891-.214.214-.475.392-.76.463-.404.178-.938.32-1.342.463-.392-.07-.689.036-1.01.072-.142.035-.249.07-.404.07-.142-.035-.368-.106-.51-.07-.321 0-.653-.072-.939-.107a19.068 19.068 0 0 1-2.969-.748 1.165 1.165 0 0 0-.439-.179c-.475-.249-1.01-.427-1.556-.605-.867-.32-2.28-.891-2.684-1.105-.178-.071-.356-.178-.582-.214a3.912 3.912 0 0 1-.974-.32c-.404-.143-.796-.25-1.128-.357-.582-.142-1.271-.356-1.888-.427-.475-.143-.974-.178-1.521-.285-.178-.071-.368-.036-.582-.071a1.537 1.537 0 0 0-.582-.107c-.249.035-.51 0-.724 0-.938-.072-1.817.071-2.648.25-.404.07-.761.213-1.271.32a4.378 4.378 0 0 0-1.414.57c-.213.071-.356.107-.475.285-.285.285-.582.392-.902.606a.686.686 0 0 1-.321.178c-.214.107-.392.25-.475.427-.142.214-.321.535-.546.713-.178.142-.25.356-.321.534a8.165 8.165 0 0 0-.321 1.247 1.618 1.618 0 0 0-.106.57c.035.428-.143.713-.036 1.07.071.32.178.64.249 1.033a.666.666 0 0 1 .072.285c.142.463.32.82.617 1.211.071.071.143.143.214.32.178.286.439.535.689.785.249.249.582.498.76.748.036.071.107.071.178.107.321.178.618.392.938.498.143.072.321.143.511.179.214.035.404.035.511.035.213.036.439 0 .653-.035.107-.036.214-.072.368-.072a6.028 6.028 0 0 0 1.378-.356c.142-.071.32-.214.475-.32a3.46 3.46 0 0 0 1.009-1.07l.036-.178c0-.142-.071-.285-.071-.427 0-.214-.179-.392-.321-.499-.071 0-.143 0-.249.036-.25.178-.547.356-.725.605l-.321.285c-.51.321-.938.5-1.662.5-.143.035-.903-.072-.974-.143-.867-.25-1.342-.855-1.663-1.39a1.801 1.801 0 0 1-.439-.534 2.992 2.992 0 0 1-.404-1.532c0-.57.036-.856.107-1.319a.57.57 0 0 1 .142-.25c.143-.391.25-.819.511-1.21.178-.392.475-.713.831-.962.25-.107.404-.214.618-.392.107-.036.178-.072.285-.143a12.71 12.71 0 0 1 1.853-.499l1.045-.214a6.437 6.437 0 0 1 1.199-.106c.582 0 1.129.07 1.592.106.249.107.582.143.831.179.582 0 1.2.142 1.77.32.249.072.582.178.867.214.249.036.475.107.795.214.392.142.832.32 1.271.499.321.035.653.107 1.01.32.32.178 1.413.535 1.817.713.439.214.938.392 1.449.606-.036 0-.036.035-.071.035-.392.25-.547.606-.832.855-.071.036-.107.107-.214.143-.213.142-.392.285-.51.463-.25.428-.582.784-.867 1.069-.368.499-.725 1.033-1.164 1.568-.178.427-.546.89-.867 1.318-.285.428-.582.926-.903 1.39l-.107.178c-.142.142-.249.285-.403.463-.179.178-.214.32-.321.534-.321.606-.689 1.14-.974 1.746-.071.071-.107.107-.143.214a.743.743 0 0 1-.213.142c-.214.036-.392.036-.582.107-1.01.214-2.138.25-3.183.463-.511 0-.974.143-1.485.214-.439 0-.76.072-1.128.143l-1.413.427c-.475.143-.867.285-1.414.428-.106.071-.213.107-.285.178-.475.25-.973.428-1.484.606-.214.107-.392.25-.582.356-.618.428-1.271.784-1.853 1.211-.368.428-.689.784-1.092 1.14-.072.107-.179.143-.25.25-.321.57-.617 1.033-.831 1.603-.178.428-.25.927-.285 1.425-.036.535-.036 1.105-.072 1.64.072.356.179.712.25 1.068.071.178.178.357.285.535.142.142.321.32.546.463.44.463.867.89 1.449 1.104.071 0 .143.036.178.107.143.107.368.178.618.214.214.071.439.143.689.178.32 0 .724-.035 1.092-.071.285-.036.654-.036.939-.142.368-.143.76-.179 1.092-.286.071-.035.143-.035.25-.07.392-.25.867-.5 1.27-.75.285-.106.511-.284.796-.498a1.54 1.54 0 0 1 .25-.214c.475-.356.867-.677 1.199-1.069.143-.142.285-.285.44-.391.51-.321.938-.784 1.306-1.248.071-.07.107-.106.142-.178.285-.32.476-.712.725-.997.321-.32.511-.713.724-1.07.036-.07.072-.142.107-.177.285-.535.475-.998.76-1.39.285-.534.547-1.069.796-1.496.321-.677.796-1.212 1.128-1.853.107-.178.321-.25.547-.32.071-.072.178-.072.249-.072.392-.071.796-.25 1.235-.214.143 0 .285-.071.392-.107.321-.035.582-.107.832-.213.249-.036.546-.107.831-.107.249 0 .475-.036.689-.143.285-.035.546-.178.831-.142.356 0 .689-.107.974-.107.107 0 .214.142.178.25a4.707 4.707 0 0 1-.249.64c-.107.214-.107.5-.178.713-.036.25-.214.499-.286.784a8.18 8.18 0 0 1-.142.713c.036.249.178.498.321.677a.473.473 0 0 0 .213.178c.25.07.582.107.832-.036.071-.036.107-.036.107-.071.142-.178.213-.357.285-.535.071-.392.213-.677.285-.997.107-.392.178-.713.439-1.034a.952.952 0 0 0 .107-.427 3.88 3.88 0 0 1 .938-1.71c.072-.072.143-.143.25-.214.142-.071.285-.143.403-.25.321-.213.689-.391 1.046-.605.653-.357 1.045-.855 1.27-1.532h.012Zm-14.822 5.487c-.285.605-.582 1.14-.902 1.781-.392.855-.938 1.675-1.556 2.459-.107.142-.249.249-.285.427-.071.178-.143.356-.285.499a5.4 5.4 0 0 1-1.045 1.176c-.475.32-.867.677-1.235 1.069-.321.392-.76.677-1.2 1.033-.938.641-1.924.962-3.076 1.069-.439 0-.796 0-1.164-.107-.32-.036-.653-.214-.974-.32-.107-.036-.142-.072-.213-.108-.107-.142-.179-.25-.25-.32-.617-.642-.511-.606-.689-1.532-.035-.036 0-.072 0-.107.036-.535.072-1.034.214-1.604.107-.356.285-.712.546-1.033a9.93 9.93 0 0 1 .582-.641c.072-.107.214-.214.369-.428.178-.107.391-.25.581-.427.143-.178.357-.321.582-.392.25-.178.582-.285.796-.499.321-.25.689-.356 1.01-.535.439-.142.867-.463 1.199-.712.036-.036.071-.036.107-.107.618-.142 1.271-.392 1.853-.606.617-.178 1.342-.32 1.959-.285.547-.178 1.081-.107 1.592-.25.214-.035.404-.07.582-.035.32-.071.689-.071.974-.142.107 0 .213.142.213.285-.071.178-.142.25-.249.392h-.036ZM326.427 9.289c.036.106.476.106.582.178.25 0 .475 0 .654-.178.106 0 .32-.285.32-.321.511-.499.321-1.318-.071-1.995-.178-.321-.724-.428-1.009-.285-.654.142-.903.498-1.081 1.069-.036.142-.036.285-.036.356 0 .534.107.82.653 1.176h-.012ZM356.273 16.343c-.285-.071-.511-.035-.653.143l-.321.499a29.5 29.5 0 0 0-1.591 2.137c-.143.214-.44.535-1.342 1.425-.475.392-1.01.856-1.449 1.176-.107.072-.214.178-.368.285-.582.428-1.2.855-1.889 1.14-.035.036-.071.036-.107 0a.275.275 0 0 1-.071-.178 6.445 6.445 0 0 1 .511-1.532c.285-.605.546-1.211.76-1.817.071-.356.214-.677.392-.962.368-.606.689-1.211 1.128-1.746.511-.57.903-1.318 1.128-1.745.143-.286.25-.57.44-.82.285-.392.368-.855.368-1.318 0-.072-.036-.143-.071-.214-.107-.285-.25-.463-.547-.57a2.002 2.002 0 0 0-.439-.178c-.107.035-.214.071-.285.142-.214.25-.392.499-.582.748-.036.072-.249.143-.285.107-.321-.178-.618-.356-.867-.605-.142-.072-.249-.214-.392-.25-.546-.214-1.093-.499-1.698-.32-.143 0-.285 0-.475-.036-.25 0-.547.036-.796.107a.854.854 0 0 0-.321.071c-.617.356-1.27.606-1.734 1.176-.213.32-.51.57-.795.82-.214.213-.404.391-.547.64-.392.57-.784 1.165-1.152 1.77-.023.012-.047.024-.071.048-.142.213-.285.499-.511.748-.213.214-.285.534-.51.784-.582.784-.939 1.354-1.663 2.138-.071.07-.356.427-.475.534-.214.25-.44.499-.725.713-.107.142-.285.249-.392.392-.403.391-.403.427-.973.783-.285.143-.547.25-.796.357a1.905 1.905 0 0 1-.44.142l-.249-.035c-.071 0-.249-.143-.285-.214-.036-.25-.178-.535-.107-.784.071-.356.178-.748.392-1.069.249-.463.546-.89.76-1.354.44-.677.831-1.39 1.2-2.066.32-.535.76-1.283 1.045-1.817.214-.428.392-.891.475-1.354.071-.285.107-.535.036-.82-.036-.32-.107-.606-.357-.82-.178-.178-.32-.356-.475-.534l-.321-.107c-.867-.213-1.591-.07-2.422.143a.773.773 0 0 0-.285.178c-.76.428-1.556 1.14-2.316 1.853-.178.142-.832.641-.974.82-.071.07-.368.32-.618.498-.142.107-.071-.143-.035-.214.142-.25.439-.89.582-1.175.106-.179.403-.749.51-.963.107-.213-.035-.783-.214-.962-.035-.035-.071-.07-.106-.07-.25-.143-.547-.286-.867-.286-.143.071-.285.143-.369.285-.249.606-.546 1.176-1.009 2.102a24.374 24.374 0 0 1-.938 1.924c-.036.06-.06.12-.095.178-.119 0-.309.012-.404.143-.143.214-.321.499-.582.748-.214.178-.249.499-.546.748-.618.784-1.01 1.319-1.782 2.103-.107.07-.356.427-.475.534-.249.25-.475.499-.76.713-.107.142-.285.249-.392.392-.404.391-.796.676-1.378 1.033-.391.142-.724.178-.867.071-.035-.071-.106-.143-.106-.214-.036-.178-.072-.356-.036-.57.036-.427.249-.855.285-1.318 0-.107.036-.178.071-.25.071-.178.107-.356.214-.534.142-.356.285-.677.475-1.033.143-.357.285-.713.546-1.033.072-.107.143-.25.214-.392.321-.784.76-1.532 1.2-2.245.392-.641 1.009-1.924 1.27-2.601l-.106-.356c-.036-.178-.143-.25-.321-.285-.036 0-.071-.036-.107-.036-.368-.036-.689.071-.903.392-.213.285-.439.57-.582.855-.249.57-.867 1.746-1.235 2.245-.142.273-.297.546-.451.807-.095.024-.202.06-.273.155-.143.213-.285.499-.511.748-.214.214-.285.534-.511.784-.582.784-.938 1.354-1.662 2.138-.072.07-.357.427-.475.534-.214.25-.44.499-.725.713-.107.142-.285.249-.392.392-.404.391-.404.427-.974.783-.285.143-.546.25-.795.357a1.905 1.905 0 0 1-.44.142l-.249-.035c-.071 0-.25-.143-.285-.214-.036-.25-.178-.535-.107-.784.071-.356.178-.748.392-1.069.249-.463.546-.89.76-1.354.439-.677.831-1.39 1.199-2.066.321-.535.761-1.283 1.046-1.817.213-.428.403-.891.475-1.354.071-.285.107-.535.035-.82-.035-.32-.107-.606-.356-.82-.178-.178-.321-.356-.475-.534l-.321-.107c-.867-.213-1.591-.07-2.423.143a.79.79 0 0 0-.285.178c-.76.428-1.555 1.14-2.315 1.853-.179.142-.832.641-.974.82-.072.07-.369.32-.618.498-.142.107-.071-.143-.036-.214.143-.25.44-.89.582-1.175.107-.179.404-.749.511-.963.107-.213-.036-.783-.214-.962-.035-.035-.071-.07-.107-.07-.249-.143-.546-.286-.867-.286-.142.071-.285.143-.368.285-.249.606-.546 1.176-1.009 2.102a24.374 24.374 0 0 1-.986 2.008.476.476 0 0 0-.356.166c-.143.178-.285.427-.511.677-.178.178-.249.498-.475.712-.546.713-.903 1.247-1.591 1.96-.072.071-.321.392-.44.499-.214.213-.439.463-.689.641-.107.143-.249.25-.368.392-.404.356-1.484.962-2.031 1.283-.107.035-.51.249-.617.285-.143.035-.321.035-.475.107-.285.142-.582.142-.903.142a3.864 3.864 0 0 1-1.556-.392c-.142-.071-.249-.214-.321-.356-.32-.677-.403-.998-.32-1.746.035-.036.035-.214.035-.25.25 0 1.129-.07 1.449-.106l1.521-.357c.973-.356 1.591-.748 2.137-1.247.143-.142.368-.285.547-.427a.792.792 0 0 0 .178-.107c.249-.356.582-.641.796-.998l.178-.32c.071-.107.368-.463.439-.606.071-.178.249-.356.321-.534l.214-.535c.106-.32.213-.606.249-.926 0-.25-.036-.5-.071-.713a1.238 1.238 0 0 0-.511-.89c-.214-.214-.475-.393-.724-.57-.321-.179-.654-.286-1.01-.214l-.938.178a1.04 1.04 0 0 0-.321.071c-.653.285-1.306.499-1.888.926a4.204 4.204 0 0 0-1.485 1.283c-.32.392-.653.784-.938 1.176l-.178.32c-.036.107-.071.214-.143.321l-.142.214a.425.425 0 0 0-.143.095c-.142.214-.285.499-.51.748-.214.214-.285.534-.511.784-.582.784-.938 1.354-1.663 2.138-.071.071-.368.427-.475.534a6.574 6.574 0 0 1-.724.713c-.107.142-.285.25-.404.392-.404.392-.404.427-.974.784a3.302 3.302 0 0 1-.796.427c-.142.071-.285.036-.439.071l-.25-.035c-.071 0-.249-.143-.285-.214-.178-.285-.249-.677-.178-.926-.035-.392.214-1.354.475-1.71.178-.321.689-1.39 1.093-2.174a39.037 39.037 0 0 0 1.342-2.03c.107-.108.178-.25.285-.357.582-.891.903-1.532 1.116-2.387.036-.143.036-.321 0-.464-.107-.392-.32-.605-.688-.712-.214-.071-.392-.214-.689-.25l-.903.107c-.178 0-.368.036-.546.107-.44.214-.107.107-.582.25-.475.142-.618.249-1.093.392-.285.07-.439.035-.32-.072.106-.392.142-.427.249-.784.036-.178 0-.498 0-.676 0-.321-.036-.428-.214-.891a1.035 1.035 0 0 0-.321-.428c-.035-.142-.249-.214-.403-.285-.107-.107-.214-.142-.404-.142h-.036c-.178 0-.653.213-.831.392-.404.32-.44.463-.653.855-.25.392-.404 1.46-.285 2.03l.142.5s.071.142.321.463c-.071.178-.178.356-.25.534-.142.285-.285.641-.475.962-.178.534-.617 1.176-.867 1.71l-.76 1.283a.712.712 0 0 0-.047.416c-.226.249-.404.558-.677.76-.107.142-.285.249-.404.391-.392.392-.796.642-1.378.998-.213.178-.475.178-.76.214-.546.036-.724-.107-.795-.143-.143-.107-.179-.285-.143-.391.249-.428.404-.891.653-1.283.25-.428.44-.855.582-1.319.178-.463.285-.926.475-1.353.036-.107.071-.25.071-.357v-.784c0-.213-.035-.427-.106-.64l-.214-.5c-.107-.178-.071-.356-.071-.534.035-.25-.036-.428-.214-.606-.25-.32-.582-.57-.867-.89-.368-.107-.653-.25-.938-.286-.321-.07-.689-.035-1.01-.035-.546.035-1.045.214-1.52.392a8.464 8.464 0 0 0-.582.32c-.404.392-.867.749-1.306 1.07-.143.07-.25.177-.357.284a7.982 7.982 0 0 0-1.413 1.853c-.178.32-.356.713-.582 1.033-.356.463-.546.998-.76 1.532l-.321 1.354c-.107.357-.035.677-.071.998-.036.178-.036.285-.036.427-.071.784.036 1.568.404 2.28.071.108.107.179.143.286.035.071.071.142.142.178.285.32.582.57.938.784a.576.576 0 0 0 .321.107c.107.035.285.035.44.035 1.377 0 1.555 0 2.577-.57.071-.071.142-.071.213-.107.404-.25.796-.534 1.164-.89.285-.428.689-.749 1.01-1.14.071-.072.142-.072.214-.107.439.178.795.427 1.377.534.44 0 1.01-.036 1.271-.142.285-.143.867-.357 1.2-.57.688-.464.617-.428 1.164-.891.51-.428 1.128-1.283 1.413-1.568.511-.677.796-1.14 1.009-1.817.036-.107.06-.19.095-.273.214-.31.416-.642.677-1.01.072-.071.44-.784.618-1.176.142-.249.249-.427.368-.605l.356.035c.214-.035.796-.213 1.045-.213.44-.072.44-.179.832-.214.475-.071.546-.214 1.009-.357h.214a.197.197 0 0 1 .107.179c0 .035 0 .07-.036.107-.178.32-.32.676-.546.997-1.164 1.71-1.77 2.672-2.173 3.35-.072.177-.475.961-.654 1.389a9.083 9.083 0 0 0-.439 1.247c-.107.214-.107.428-.143.677.036.142 0 .285 0 .427-.071.392-.035.856.179 1.426.51.64.831.926 1.27 1.104.321.143.796.178 1.2.071.107-.035.214-.035.356-.107.44 0 1.093-.391 1.449-.57.25-.142.511-.356 1.164-.855 0-.07.178-.142.321-.25.107-.142.404-.32.582-.57.368-.32.617-.605.76-.783.154-.166.273-.297.392-.44-.024.393.047.784.178 1.153 0 .07 0 .142.035.213.036.285.143.535.321.749.285.32.582.64.867.926.214.178.44.356.689.428.582.142.938.249 1.556.213 1.164-.071 2.244-.356 3.23-.926.214-.107.582-.356.76-.499.285-.178 1.235-.89 1.414-.997.047-.048.118-.107.19-.167-.226.44-.523.974-.784 1.307-.143.142-.143.356-.143.534a.23.23 0 0 0 0 .214c.072.285.285.57.547.57.439 0 .724-.107.938-.214.071-.071.142-.142.249-.214.357-.285.321-.605.582-.997.321-.535.903-1.532 1.307-2.031.035-.071.249-.428.688-1.033.285-.392.547-.749.796-1.034.143-.213 1.271-1.46 1.449-1.639l.974-.89c.142-.107 1.128-.82 1.235-.927l1.698-1.282c.321-.214.654-.428.974-.606.178-.143.547-.143.796-.107.143 0 .285.178.249.32 0 .214-.035.393-.106.57a7.547 7.547 0 0 1-.689 1.426l-.867 1.354c-.143.32-.285.606-.511.89-.285.392-.582.784-.796 1.248a2.307 2.307 0 0 1-.32.57c-.214.214-.321.534-.44.784-.107.213-.107.427-.142.677.035.142-.036.285-.036.427-.107.463-.107.926.036 1.354.32.499.689.926 1.235 1.176.439.071.902.071 1.378-.036.106-.035.213-.035.368-.035.439 0 1.08-.392 1.449-.57.368-.214.724-.5 1.164-.856 0-.07.178-.142.32-.25.107-.142.392-.32.582-.57.143-.118.273-.249.404-.367a6.819 6.819 0 0 0-.107 1.223c-.036.178.036.356.143.534l.213.392c.072.072.107.143.178.178.214.107.44.286.689.392.214.107.903.107 1.414-.107.249-.142 1.009-.356 1.342-.57.32-.213.689-.498 1.128-.855 0-.07.142-.142.368-.25.107-.142.392-.32.511-.57.059-.047.107-.082.154-.13-.225.452-.522.974-.784 1.307-.142.142-.142.356-.142.534a.225.225 0 0 0 0 .214c.071.285.285.57.546.57.44 0 .725-.107.938-.214.072-.071.143-.142.25-.214.356-.285.32-.605.582-.997.32-.535.902-1.532 1.306-2.031.036-.071.25-.428.689-1.033.285-.392.546-.749.796-1.034.142-.213 1.27-1.46 1.449-1.639l.974-.89c.142-.107 1.128-.82 1.235-.927l1.698-1.282c.321-.214.653-.428.974-.606.178-.143.546-.143.796-.107.142 0 .285.178.249.32 0 .214-.036.393-.107.57a7.486 7.486 0 0 1-.689 1.426l-.867 1.354c-.142.32-.285.606-.51.89-.285.392-.582.784-.796 1.248a2.28 2.28 0 0 1-.321.57c-.214.214-.32.534-.439.784-.107.213-.107.427-.143.677.036.142-.035.285-.035.427-.107.463-.107.926.035 1.354.321.499.689.926 1.235 1.176.44.071.903.071 1.378-.036.107-.035.214-.035.368-.035.44 0 1.093-.392 1.449-.57.368-.214.725-.5 1.164-.856 0-.07.178-.142.321-.25.107-.142.392-.32.582-.57.285-.249.582-.534.76-.783a.587.587 0 0 1 .083-.095c0 .273 0 .534.024.808.213.57.356 1.175.867 1.674.285.214.653.32 1.009.428.404.107.76.178 1.164 0l.582-.107c.511-.143 1.045-.32 1.449-.713.285-.213.582-.392.903-.534l.071.035a.346.346 0 0 1 .035.321c-.142.356-.32.713-.475 1.069-.142.32-.356.57-.653.784-.285.214-.617.392-.867.57a11.03 11.03 0 0 1-1.199.748c-.796.428-1.592.89-2.281 1.46-.178.143-.32.322-.546.428-.546.321-.938.784-1.378 1.247l-1.163 1.283c-.44.499-.796 1.033-.939 1.71-.107.5-.142.998.072 1.461 0 .356.178.57.439.784.107.143.249.285.439.392a.711.711 0 0 0 .511.214c.582.071 1.2.107 1.77.071.142 0 .285-.071.439-.107.546-.178.974-.499 1.449-.784.356-.214.618-.605.867-.926.107-.107.178-.25.249-.392.547-.784 1.046-1.603 1.592-2.387.368-.677.831-1.319 1.093-2.067.285-.463.439-.962.617-1.46.107-.214.178-.428.285-.642.071-.214.107-.463.285-.641a4.392 4.392 0 0 1 1.449-.927c.107-.07.178-.142.285-.178.582-.285 1.045-.677 1.592-.997.368-.25.724-.463 1.045-.748.285-.286.689-.5 1.009-.749.653-.499.178-.178.796-.712.071-.072.142-.143.214-.25a12.873 12.873 0 0 0 2.173-2.6c.214-.25.368-.713.546-.998.072-.143.285-.428.285-.606 0-.143.072-.32.072-.463 0-.25-.178-.499-.44-.535l-.083.012Zm-76.52-1.425a3.79 3.79 0 0 1-.321.392c-.76 1.104-.867 1.283-1.128 2.53-.178.463-.214.926-.178 1.46l.107 1.247c-.214.25-.368.428-.475.642-.368.57-.903 1.033-1.485 1.425-.107.107-.285.178-.475.25-.249.07-.475.106-.617.213-.357.178-.654.178-1.01.107-.368-.107-.582-.32-.76-.677-.036-.107-.036-.25-.071-.32-.178-.535-.25-1.07-.178-1.604l.106-.606a7.752 7.752 0 0 1 .44-1.888c.107-.285.285-.534.439-.82.44-.534.689-1.14 1.045-1.638.285-.463.796-.82 1.164-1.247.036-.036.107-.072.178-.107.357-.214.618-.428.974-.57.25-.143.618-.285 1.01-.285.214.035.475 0 .653 0 .178 0 .321.07.439.142.072 0 .143.036.143.107.214.392.285.784 0 1.247Zm18.789 2.102c.475-.997 1.045-1.496 1.627-2.03.107-.072.249-.179.368-.286.392-.498.938-.784 1.52-.997.249-.107.546-.179.796-.25.285-.071.653.178.653.5.036.391-.036.747-.214 1.104-.214.498-.546.926-.902 1.354-.44.427-1.628 1.567-2.316 1.888-.582.25-1.164.392-2.174.392-.035-.072.036-.357.107-.57.036-.107.071-.25.143-.392.142-.25.285-.463.392-.713Zm46.104 10.927c-.071.178-.107.392-.214.534-.285.534-.51 1.14-.867 1.639-.071.107-.178.25-.213.392-.404.784-.939 1.425-1.449 2.102-.214.32-.511.57-.832.784-.178.107-.32.214-.475.32a1.21 1.21 0 0 1-.689.214h-.178c-.107-.035-.178-.035-.285-.035-.285-.036-.511-.072-.582-.57-.071-.357 0-.677.178-.998l.654-.82a2.47 2.47 0 0 1 .285-.356c.51-.427.973-.89 1.449-1.354a5.96 5.96 0 0 1 1.092-.855l1.889-1.176c.071-.035.142-.035.213-.035.072.035.072.142.036.214h-.012Zm1.841-7.376c-.618.642-1.342 1.212-2.067 1.71-.439.286-.938.428-1.448.5-.214.035-.44-.072-.582-.286-.25-.392-.369-.784-.321-1.282 0-.428.107-.927.249-1.426.25-.677.511-1.354.832-2.03.403-.749.831-1.461 1.342-2.138.213-.285.475-.535.689-.784.106-.107.617-.677 1.163-1.069.25-.25.76-.32 1.129-.392.249-.036.51 0 .724-.036.76 0 1.271.25 1.663.82.071.071.107.178.178.285.143.25.107.534 0 .784-.178.392-.321.784-.546 1.14a8.242 8.242 0 0 0-.511 1.033 3.562 3.562 0 0 1-.582.998 18.639 18.639 0 0 1-1.924 2.173h.012Z"/></g><defs><clipPath id="a"><path fill="#fff" d="M.287.5h356.425v35H.287z"/></clipPath></defs></svg>
